<svg width="83" height="84" viewBox="0 0 83 84" fill="none" xmlns="http://www.w3.org/2000/svg">
<path d="M2.31288 37.3559C8.25783 38.6075 13.5767 37.3559 22.3375 46.1167L25.4663 47.994V36.7301L10.135 25.1534L2.31288 24.2148L2 30.4725L6.69326 31.4111L2.31288 33.9142V37.3559Z" fill="#205D7D"/>
<path d="M10.135 25.1534L25.4663 36.7301L49.5584 21.3988C45.4909 7.63192 32.0369 2 32.0369 2L30.1596 4.19019L36.1044 12.0123L26.405 3.56442L19.5215 5.75461L24.8405 12.0123L16.7056 6.69326L12.9509 9.50922L18.5829 15.7669L10.135 11.3865L2.31288 20.1473L10.135 25.1534Z" fill="#205D7D"/>
<path d="M10.135 25.1534L2.31288 24.2148L2 30.4725L6.69326 31.4111L2.31288 33.9142V37.3559C8.25783 38.6075 13.5767 37.3559 22.3375 46.1167L25.4663 47.994V36.7301M10.135 25.1534L25.4663 36.7301M10.135 25.1534L2.31288 20.1473L10.135 11.3865L18.5829 15.7669L12.9509 9.50922L16.7056 6.69326L24.8405 12.0123L19.5215 5.75461L26.405 3.56442L36.1044 12.0123L30.1596 4.19019L32.0369 2C32.0369 2 45.4909 7.63192 49.5584 21.3988L25.4663 36.7301" stroke="#05212F" stroke-width="2" stroke-miterlimit="16"/>
<path d="M79.9674 72.6574C84.3478 77.6635 77.1514 87.9887 69.6422 80.1666C62.7419 72.9788 44.4809 52.3165 40.1082 47.3137C40.1082 47.3137 31.1575 53.5713 24.5869 48.5652C14.8875 40.4302 44.2987 15.7124 53.6851 23.5345C59.0042 32.608 49.9305 40.1174 49.9305 40.1174C55.8754 46.3751 75.587 67.6512 79.9674 72.6574Z" fill="#425A80"/>
<path d="M49.9305 40.1174C55.8754 46.3751 75.587 67.6512 79.9674 72.6574C84.3478 77.6635 77.1514 87.9887 69.6422 80.1666C62.7419 72.9788 44.4809 52.3165 40.1082 47.3137M49.9305 40.1174C43.9856 33.8598 37.4151 44.185 39.2924 46.3751C39.4447 46.5527 39.7224 46.8722 40.1082 47.3137M49.9305 40.1174C49.9305 40.1174 59.0042 32.608 53.6851 23.5345C44.2987 15.7124 14.8875 40.4302 24.5869 48.5652C31.1575 53.5713 40.1082 47.3137 40.1082 47.3137" stroke="#16253F" stroke-width="2"/>
</svg>
