<svg width="26" height="28" viewBox="0 0 26 28" fill="none" xmlns="http://www.w3.org/2000/svg">
<path fill-rule="evenodd" clip-rule="evenodd" d="M13.0098 0C20.7526 0 24.1555 1.79834 25.2921 2.60742C25.8471 3.00271 26.0333 3.64402 25.96 4.19336L23.6925 21.2002C23.4313 23.1597 22.2709 24.8855 20.5548 25.8662L20.128 26.1104L20.127 26.1094C15.7169 28.6294 10.3028 28.6295 5.89266 26.1094L5.4659 25.8662C3.74968 24.8855 2.58944 23.1596 2.3282 21.2002L0.0606251 4.19336C-0.0126033 3.64396 0.173455 3.00269 0.728594 2.60742C1.86505 1.79837 5.26741 7.40955e-05 13.0098 0ZM1.71918 4.30929C2.68631 3.68984 6.08462 2.00007 13.0098 2C19.9337 2 23.3332 3.68953 24.3012 4.30929C24.0055 4.61599 23.5013 4.94073 22.7612 5.24777C22.0317 5.55033 21.1305 5.81216 20.0991 6.02609C18.0363 6.45387 15.5331 6.67257 13.0102 6.67257C10.4873 6.67257 7.98406 6.45388 5.92133 6.02609C4.88988 5.81216 3.98866 5.55034 3.25922 5.24777C2.51905 4.94073 2.01494 4.616 1.71918 4.30929Z" fill="#D9D9D9"/>
</svg>
