<svg width="38" height="38" viewBox="0 0 38 38" fill="none" xmlns="http://www.w3.org/2000/svg">
<path d="M38 19C38 29.4934 29.4934 38 19 38C8.50659 38 0 29.4934 0 19C0 8.50659 8.50659 0 19 0C29.4934 0 38 8.50659 38 19Z" fill="#FFAD3E"/>
<path d="M31.2444 19C31.2444 25.7624 25.7624 31.2444 19 31.2444C12.2376 31.2444 6.75556 25.7624 6.75556 19C6.75556 12.2376 12.2376 6.75556 19 6.75556C25.7624 6.75556 31.2444 12.2376 31.2444 19Z" fill="#F39738"/>
<path d="M23.3278 19C23.3278 22.3229 21.3902 25.0167 19 25.0167C16.6098 25.0167 14.6722 22.3229 14.6722 19C14.6722 15.6771 16.6098 12.9833 19 12.9833C21.3902 12.9833 23.3278 15.6771 23.3278 19Z" fill="#C26729"/>
<path d="M21.4278 15.9917C21.4278 16.6621 21.0261 17.2056 20.5306 17.2056C20.035 17.2056 19.6333 16.6621 19.6333 15.9917C19.6333 15.3213 20.035 14.7778 20.5306 14.7778C21.0261 14.7778 21.4278 15.3213 21.4278 15.9917Z" fill="white" fill-opacity="0.3"/>
</svg>
