<svg width="376" height="74" viewBox="0 0 376 74" fill="none" xmlns="http://www.w3.org/2000/svg">
<path d="M3 28C3 14.1929 14.1929 3 28 3H348C361.807 3 373 14.1929 373 28V46C373 59.8071 361.807 71 348 71H28C14.1929 71 3 59.8071 3 46V28Z" fill="#33496B"/>
<path d="M158.078 0.6875C159.447 0.742859 160.819 0.840567 162.188 0.96875C163.462 1.08809 164.742 1.14971 166.016 1.15625C167.317 1.16285 168.621 1.13047 169.922 1.07812C171.332 1.0215 172.747 1.04867 174.156 1.15625C175.374 1.24893 176.595 1.24221 177.812 1.125C179.259 0.986058 180.71 0.967984 182.156 1.07812C183.386 1.17151 184.614 1.1693 185.844 1.07812C187.304 0.969402 188.776 1.00275 190.234 1.17188C191.454 1.31311 192.672 1.3475 193.891 1.28125C195.25 1.20731 196.61 1.16214 197.969 1.14062C199.311 1.11937 200.657 1.11146 202 1.10938C203.292 1.10731 204.583 1.06369 205.875 0.984375C207.258 0.899436 208.648 0.873092 210.031 0.890625C211.406 0.908188 212.782 0.971028 214.156 1.07812C215.394 1.17449 216.638 1.17485 217.875 1.09375C219.213 1.00605 220.552 0.930527 221.891 0.859375C223.316 0.78362 224.747 0.800778 226.172 0.921875C227.469 1.03207 228.766 1.11586 230.062 1.15625C231.373 1.19707 232.689 1.20685 234 1.20312C235.359 1.19934 236.719 1.22933 238.078 1.28125C239.261 1.3263 240.451 1.23602 241.641 1.01562C243.141 0.738177 244.649 0.649833 246.156 0.765625C247.448 0.864829 248.74 0.931742 250.031 0.953125C251.4 0.97575 252.772 1.02919 254.141 1.125C255.417 1.21433 256.693 1.25115 257.969 1.23438C259.256 1.21732 260.556 1.15236 261.844 1.04688C263.255 0.931634 264.667 0.910847 266.078 0.96875C267.326 1.0201 268.579 0.997607 269.828 0.890625C271.258 0.768064 272.695 0.7422 274.125 0.828125C275.438 0.906929 276.75 0.972714 278.062 1.01562C279.342 1.05743 280.627 1.04626 281.906 0.984375C283.276 0.918176 284.646 0.892703 286.016 0.90625C287.372 0.919741 288.738 0.955874 290.094 1.01562C291.437 1.07488 292.781 1.14574 294.125 1.23438C295.403 1.31875 296.691 1.34963 297.969 1.32812C299.196 1.30736 300.425 1.19421 301.656 0.984375C303.182 0.723849 304.72 0.695738 306.25 0.890625C307.536 1.05459 308.824 1.16184 310.109 1.23438C311.404 1.30736 312.706 1.34687 314 1.34375C315.236 1.34054 316.48 1.24308 317.719 1.0625C319.232 0.842579 320.751 0.844849 322.266 1.04688C323.437 1.203 324.611 1.20883 325.781 1.07812C327.207 0.919025 328.635 0.860634 330.062 0.90625C331.343 0.947231 332.625 0.945785 333.906 0.890625C335.263 0.831986 336.627 0.791579 337.984 0.78125C339.375 0.77067 340.766 0.813596 342.156 0.921875C343.437 1.02161 344.72 1.08071 346 1.07812C347.428 1.07544 348.844 1.17347 350.25 1.375C351.627 1.57248 352.987 1.83736 354.328 2.17188C355.669 2.50646 356.992 2.91757 358.297 3.39062C359.618 3.86971 360.922 4.43044 362.188 5.07812C363.616 5.80989 364.856 6.80105 365.891 8.03125C366.68 8.96974 367.555 9.8425 368.5 10.6406C369.761 11.7075 370.729 13.0055 371.391 14.5156C371.928 15.7432 372.473 16.9635 373.016 18.1719C373.603 19.4782 374.085 20.8281 374.469 22.2188C374.892 23.7558 375.027 25.3318 374.859 26.9219C374.736 28.093 374.756 29.2601 374.938 30.4219C375.172 31.9246 375.22 33.4314 375.062 34.9375C374.939 36.1202 374.95 37.3008 375.094 38.4844C375.268 39.918 375.326 41.3612 375.281 42.7969C375.237 44.1904 375.126 45.5821 374.953 46.9688C374.79 48.2775 374.644 49.5906 374.516 50.9062C374.365 52.4435 373.983 53.9237 373.375 55.3438C372.814 56.6538 372.173 57.9212 371.453 59.1406C370.745 60.3388 369.988 61.5098 369.172 62.6406C368.289 63.8632 367.263 64.9549 366.094 65.9062C365.037 66.7657 363.952 67.5936 362.859 68.4062C361.639 69.3138 360.316 70.0349 358.891 70.5625C357.606 71.0373 356.305 71.4788 355 71.875C353.653 72.2838 352.274 72.6138 350.875 72.8594C349.353 73.1265 347.818 73.1573 346.281 72.9531C345.101 72.7965 343.925 72.7836 342.75 72.9062C341.35 73.0523 339.948 73.1267 338.547 73.125C337.18 73.1231 335.804 73.0861 334.438 73.0156C333.132 72.9484 331.821 72.9037 330.516 72.8906C329.204 72.8776 327.89 72.8811 326.578 72.9062C325.177 72.933 323.776 72.8862 322.375 72.7656C321.138 72.659 319.892 72.6448 318.656 72.7188C317.34 72.7976 316.019 72.8908 314.703 73C313.318 73.1148 311.932 73.1682 310.547 73.1719C309.151 73.1755 307.754 73.1116 306.359 72.9844C305.099 72.8695 303.838 72.8231 302.578 72.8438C301.21 72.8662 299.837 72.8614 298.469 72.8125C297.251 72.7692 296.033 72.8337 294.812 73C293.408 73.1914 292 73.3064 290.594 73.3438C289.128 73.3825 287.664 73.2682 286.203 73.0156C285.087 72.8225 283.974 72.8094 282.859 72.9844C281.364 73.2201 279.859 73.2781 278.359 73.1406C277.042 73.0198 275.724 72.9193 274.406 72.8281C273.12 72.7391 271.833 72.6881 270.547 72.6875C269.31 72.687 268.068 72.7753 266.828 72.9531C265.367 73.1628 263.902 73.2201 262.438 73.1406C261.079 73.0667 259.718 72.9702 258.359 72.8438C257.109 72.7274 255.858 72.6931 254.609 72.7344C253.287 72.7781 251.963 72.8296 250.641 72.8906C249.252 72.9547 247.858 72.9613 246.469 72.9062C245.206 72.8561 243.934 72.8687 242.672 72.9531C241.297 73.045 239.922 73.0931 238.547 73.0938C237.162 73.0943 235.775 73.0444 234.391 72.9375C233.089 72.8369 231.786 72.7582 230.484 72.7188C229.284 72.6824 228.08 72.7684 226.875 72.9688C225.322 73.2272 223.756 73.2325 222.203 72.9688C221.077 72.778 219.952 72.7569 218.828 72.9219C217.358 73.1374 215.88 73.2074 214.406 73.1094C213.057 73.0197 211.708 72.9066 210.359 72.7812C209.167 72.6705 207.975 72.6859 206.781 72.8281C205.412 72.9915 204.041 73.1152 202.672 73.2031C201.236 73.2953 199.795 73.2853 198.359 73.1562C197.057 73.0392 195.755 72.9382 194.453 72.875C193.195 72.814 191.93 72.8292 190.672 72.9062C189.27 72.9923 187.856 72.9969 186.453 72.9375C185.177 72.8836 183.901 72.8878 182.625 72.9375C181.324 72.9882 180.02 73.0732 178.719 73.1875C177.241 73.3174 175.757 73.2842 174.281 73.0938C173.082 72.9393 171.885 72.9028 170.688 72.9844C169.311 73.0788 167.924 73.1207 166.547 73.125C165.219 73.1291 163.891 73.1483 162.562 73.1562C161.185 73.1645 159.799 73.1191 158.422 73.0312C157.181 72.952 155.928 72.9531 154.688 73.0469C153.223 73.1571 151.759 73.1222 150.297 72.9375C149.068 72.782 147.836 72.726 146.609 72.7656C145.34 72.8068 144.068 72.9047 142.797 73.0625C141.28 73.251 139.749 73.2316 138.234 73C137.021 72.8148 135.803 72.731 134.594 72.7656C133.242 72.8042 131.883 72.8314 130.531 72.8281C129.245 72.8251 127.958 72.8692 126.672 72.9531C125.215 73.0481 123.752 73.0032 122.297 72.8281C121.074 72.6813 119.846 72.6334 118.625 72.6875C117.323 72.7453 116.021 72.8269 114.719 72.9375C113.344 73.0544 111.954 73.1267 110.578 73.1562C109.234 73.1851 107.891 73.2003 106.547 73.2031C105.194 73.206 103.837 73.1931 102.484 73.1562C101.125 73.1192 99.7657 73.0474 98.4062 72.9531C97.1618 72.8668 95.9162 72.8745 94.6719 72.9531C93.3094 73.0393 91.9408 73.0987 90.5781 73.125C89.2552 73.1506 87.9323 73.1782 86.6094 73.2188C85.1954 73.2621 83.7725 73.2211 82.3594 73.0938C81.0942 72.9799 79.8268 72.9232 78.5625 72.9375C77.263 72.9522 75.9559 72.9995 74.6562 73.0781C73.2291 73.1642 71.8017 73.1535 70.375 73.0312C69.0635 72.9187 67.7489 72.8227 66.4375 72.75C65.2159 72.6823 63.9887 72.7118 62.7656 72.8438C61.3419 72.9979 59.9096 73.0578 58.4844 73.0156C57.2144 72.978 55.9422 72.9952 54.6719 73.0781C53.2969 73.1679 51.9221 73.2201 50.5469 73.2188C49.2431 73.2174 47.9289 73.2405 46.625 73.2969C45.1937 73.3585 43.7581 73.3074 42.3281 73.1562C41.0467 73.0209 39.7651 72.9332 38.4844 72.8906C37.2132 72.8485 35.9277 72.8768 34.6562 72.9531C33.2144 73.0393 31.7688 72.9969 30.3281 72.8438C29.0498 72.708 27.7789 72.6263 26.5156 72.5938C25.0545 72.5562 23.6061 72.359 22.1875 72.0156C20.9088 71.7061 19.6172 71.3933 18.3125 71.0781C16.8213 70.7179 15.3964 70.1543 14.0625 69.3906C12.7388 68.6318 11.5405 67.7085 10.4688 66.625C9.50985 65.6555 8.5669 64.6747 7.64062 63.6875C6.58467 62.5619 5.71976 61.3024 5.0625 59.9062C4.49989 58.71 3.92632 57.5183 3.34375 56.3438C2.66281 54.9707 2.21263 53.5156 1.98438 52C1.78976 50.7081 1.58163 49.4163 1.35938 48.125C1.1215 46.7433 0.945508 45.3431 0.859375 43.9375C0.771056 42.496 0.807573 41.0498 0.953125 39.6094C1.07386 38.4119 1.07556 37.2132 0.953125 36.0156C0.804808 34.5639 0.777311 33.1088 0.890625 31.6562C0.993983 30.3313 1.1 29.0057 1.1875 27.6875C1.27371 26.3878 1.33722 25.0709 1.375 23.75C1.42258 22.1184 1.81033 20.5583 2.53125 19.0938C3.14346 17.8503 3.77824 16.6336 4.45312 15.4531C5.12769 14.2733 5.84711 13.1118 6.59375 11.9688C7.40112 10.7332 8.33905 9.60245 9.40625 8.57812C10.4079 7.61701 11.4579 6.69073 12.5469 5.8125C13.7688 4.8277 15.1264 4.07726 16.6094 3.5625C17.8432 3.13478 19.0739 2.6669 20.2812 2.17188C21.6764 1.60043 23.1279 1.20889 24.625 1C25.3195 0.903162 25.9316 0.838483 26.4375 0.8125C26.8771 0.790025 27.4562 0.784002 27.9688 0.921875C27.9561 0.918475 27.9962 0.920864 28.1094 0.9375C28.2162 0.953157 28.3592 0.982283 28.5469 1C28.9276 1.03588 29.4434 1.0638 30.0938 1.09375C31.4166 1.15466 32.7396 1.20503 34.0625 1.25C35.3101 1.29239 36.5639 1.25857 37.8125 1.14062C39.2079 1.00883 40.6038 0.93674 42 0.9375C43.3431 0.938266 44.6881 0.948237 46.0312 0.96875C47.2906 0.987961 48.5522 0.948135 49.8125 0.828125C51.255 0.69086 52.6975 0.677183 54.1406 0.78125C55.3926 0.871677 56.6546 0.875536 57.9062 0.8125C59.2636 0.744237 60.627 0.702125 61.9844 0.6875C63.4452 0.672144 64.9047 0.797396 66.3594 1.0625C67.5505 1.27955 68.7376 1.35965 69.9219 1.3125C71.3073 1.25739 72.6927 1.27276 74.0781 1.32812C75.3474 1.37888 76.6212 1.36821 77.8906 1.29688C79.2601 1.21996 80.6303 1.17258 82 1.17188C83.3021 1.17119 84.6041 1.13882 85.9062 1.07812C87.3154 1.01244 88.7318 1.03035 90.1406 1.125C91.3375 1.20498 92.5351 1.17115 93.7344 1.01562C95.1372 0.83308 96.5485 0.716026 97.9531 0.6875C99.3051 0.660271 100.664 0.658336 102.016 0.671875C103.445 0.686242 104.886 0.811126 106.312 1.03125C107.552 1.22218 108.795 1.32674 110.031 1.34375C111.254 1.36036 112.477 1.27484 113.703 1.09375C115.143 0.880812 116.588 0.785543 118.031 0.8125C119.373 0.837906 120.721 0.878493 122.062 0.921875C123.4 0.965145 124.74 1.00998 126.078 1.0625C127.353 1.11255 128.631 1.10854 129.906 1.04688C131.269 0.981 132.637 0.940928 134 0.9375C135.292 0.934156 136.583 0.889238 137.875 0.8125C139.357 0.724347 140.851 0.806921 142.328 1.04688C143.539 1.24314 144.747 1.3359 145.953 1.3125C147.256 1.28674 148.572 1.22616 149.875 1.14062C151.182 1.05474 152.489 0.942813 153.797 0.8125C155.222 0.670433 156.652 0.629949 158.078 0.6875ZM154.203 4.79688C152.847 4.93205 151.481 5.03599 150.125 5.125C148.766 5.21415 147.406 5.26988 146.047 5.29688C144.591 5.32565 143.123 5.23572 141.672 5C140.486 4.80782 139.306 4.74271 138.125 4.8125C136.754 4.89407 135.371 4.93405 134 4.9375C132.699 4.94085 131.395 4.96832 130.094 5.03125C128.703 5.09843 127.313 5.11708 125.922 5.0625C124.594 5.01036 123.266 4.94921 121.938 4.90625C120.615 4.86349 119.291 4.83757 117.969 4.8125C116.749 4.78939 115.521 4.86609 114.297 5.04688C112.859 5.25964 111.41 5.36358 109.969 5.34375C108.543 5.32396 107.11 5.20394 105.688 4.98438C104.451 4.79388 103.218 4.68448 101.984 4.67188C100.673 4.6587 99.3579 4.66116 98.0469 4.6875C96.7892 4.71283 95.5251 4.82072 94.2656 4.98438C92.8031 5.17469 91.3243 5.20779 89.8594 5.10938C88.6041 5.0253 87.3488 5.01964 86.0938 5.07812C84.7298 5.1417 83.3641 5.17117 82 5.17188C80.7041 5.17256 79.4054 5.20842 78.1094 5.28125C76.7136 5.3596 75.3178 5.36828 73.9219 5.3125C72.6417 5.2613 71.3583 5.26153 70.0781 5.3125C68.5962 5.37141 67.1157 5.26883 65.6406 5C64.4309 4.77961 63.2191 4.67453 62.0156 4.6875C60.7106 4.70164 59.3988 4.74678 58.0938 4.8125C56.6823 4.8833 55.2705 4.8674 53.8594 4.76562C52.6374 4.67737 51.4101 4.69608 50.1875 4.8125C48.7822 4.94622 47.375 4.99023 45.9688 4.96875C44.6459 4.94855 43.3229 4.93826 42 4.9375C40.7301 4.93678 39.4582 5.00496 38.1875 5.125C36.7715 5.25873 35.3545 5.29791 33.9375 5.25C32.5961 5.20443 31.2476 5.15552 29.9062 5.09375C28.6364 5.03525 27.5416 4.94818 26.9219 4.78125C26.9502 4.78889 26.9821 4.79341 27 4.79688C26.9319 4.79379 26.8116 4.80374 26.6406 4.8125C26.2968 4.83016 25.8103 4.87967 25.1719 4.96875C24.005 5.13184 22.881 5.43085 21.7969 5.875C20.5211 6.39806 19.2254 6.89185 17.9219 7.34375C16.8758 7.70687 15.9244 8.2283 15.0625 8.92188C14.0621 9.72871 13.09 10.5878 12.1719 11.4688C11.3241 12.2832 10.5776 13.1764 9.9375 14.1562C9.23493 15.2318 8.57178 16.3284 7.9375 17.4375C7.30371 18.546 6.68651 19.687 6.10938 20.8594C5.64105 21.8108 5.40533 22.8146 5.375 23.875C5.33578 25.2444 5.26141 26.6035 5.17188 27.9531C5.08334 29.287 4.99519 30.6283 4.89062 31.9688C4.79602 33.1815 4.79794 34.3959 4.92188 35.6094C5.07193 37.077 5.08578 38.5479 4.9375 40.0156C4.81374 41.2403 4.78465 42.4638 4.85938 43.6875C4.9366 44.948 5.08398 46.2006 5.29688 47.4375C5.52446 48.7594 5.73824 50.0834 5.9375 51.4062C6.1036 52.5091 6.42699 53.5632 6.92188 54.5625C7.51687 55.7621 8.11318 56.982 8.6875 58.2031C9.16627 59.2193 9.79345 60.1335 10.5625 60.9531C11.4637 61.9135 12.379 62.8687 13.3125 63.8125C14.1315 64.6404 15.0491 65.3417 16.0625 65.9219C17.0686 66.4976 18.1282 66.9322 19.25 67.2031C20.5547 67.5183 21.8463 67.8311 23.125 68.1406C24.2667 68.417 25.4319 68.5632 26.6094 68.5938C27.9826 68.629 29.3655 68.7279 30.75 68.875C31.9733 69.005 33.1998 69.0265 34.4219 68.9531C35.8171 68.8693 37.2139 68.8444 38.6094 68.8906C39.9901 68.9364 41.37 69.0417 42.75 69.1875C43.9842 69.3179 45.2203 69.35 46.4531 69.2969C47.8159 69.238 49.184 69.2173 50.5469 69.2188C51.8331 69.2201 53.1197 69.1776 54.4062 69.0938C55.8026 69.0026 57.2127 68.9742 58.6094 69.0156C59.8481 69.052 61.0879 69.0093 62.3281 68.875C63.7692 68.719 65.2137 68.67 66.6562 68.75C68.009 68.825 69.3661 68.9308 70.7188 69.0469C71.9533 69.1526 73.1879 69.1684 74.4219 69.0938C75.7863 69.0112 77.151 68.953 78.5156 68.9375C79.9155 68.9217 81.3197 68.9834 82.7188 69.1094C83.9723 69.2223 85.2317 69.2572 86.4844 69.2188C87.8229 69.1777 89.1615 69.1509 90.5 69.125C91.804 69.0998 93.1177 69.0356 94.4219 68.9531C95.8416 68.8635 97.2679 68.8703 98.6875 68.9688C99.9897 69.059 101.292 69.1208 102.594 69.1562C103.905 69.1919 105.22 69.2058 106.531 69.2031C107.852 69.2003 109.18 69.1846 110.5 69.1562C111.791 69.1285 113.084 69.0629 114.375 68.9531C115.734 68.8376 117.094 68.7478 118.453 68.6875C119.896 68.6235 121.34 68.686 122.781 68.8594C123.991 69.0049 125.199 69.0316 126.406 68.9531C127.784 68.8632 129.169 68.8248 130.547 68.8281C131.859 68.8314 133.172 68.8188 134.484 68.7812C135.939 68.7396 137.393 68.8251 138.844 69.0469C139.996 69.2231 141.147 69.2367 142.297 69.0938C143.69 68.9206 145.09 68.8108 146.484 68.7656C147.922 68.7194 149.362 68.7871 150.797 68.9688C151.996 69.1204 153.193 69.1529 154.391 69.0625C155.816 68.9548 157.246 68.9402 158.672 69.0312C159.959 69.1134 161.245 69.1639 162.531 69.1562C163.865 69.1483 165.198 69.1292 166.531 69.125C167.821 69.121 169.116 69.0728 170.406 68.9844C171.87 68.884 173.335 68.9364 174.797 69.125C175.988 69.2787 177.186 69.3076 178.375 69.2031C179.738 69.0834 181.105 68.9907 182.469 68.9375C183.854 68.8836 185.24 68.8945 186.625 68.9531C187.889 69.0067 189.157 68.9839 190.422 68.9062C191.828 68.82 193.235 68.8068 194.641 68.875C196 68.9409 197.359 69.0497 198.719 69.1719C199.95 69.2826 201.191 69.2978 202.422 69.2188C203.716 69.1355 205.017 69.0139 206.312 68.8594C207.784 68.6843 209.262 68.6601 210.734 68.7969C212.047 68.9187 213.359 69.0221 214.672 69.1094C215.862 69.1885 217.056 69.1438 218.25 68.9688C219.79 68.7426 221.337 68.7548 222.875 69.0156C223.989 69.2048 225.105 69.2166 226.219 69.0312C227.678 68.7886 229.145 68.69 230.609 68.7344C231.972 68.7757 233.341 68.8479 234.703 68.9531C235.983 69.0518 237.268 69.0943 238.547 69.0938C239.833 69.0931 241.12 69.0547 242.406 68.9688C243.81 68.8749 245.221 68.8505 246.625 68.9062C247.9 68.9568 249.178 68.9495 250.453 68.8906C251.794 68.8287 253.143 68.7787 254.484 68.7344C255.899 68.6879 257.32 68.7277 258.734 68.8594C260.04 68.9809 261.35 69.0852 262.656 69.1562C263.856 69.2212 265.063 69.1726 266.266 69C267.69 68.7958 269.119 68.6869 270.547 68.6875C271.925 68.6881 273.31 68.7328 274.688 68.8281C276.031 68.9212 277.375 69.0331 278.719 69.1562C279.886 69.2633 281.063 69.2315 282.234 69.0469C283.784 68.8028 285.343 68.8103 286.891 69.0781C288.092 69.2855 289.289 69.3751 290.484 69.3438C291.742 69.3104 293.006 69.2027 294.266 69.0312C295.709 68.8344 297.163 68.7611 298.609 68.8125C299.908 68.8589 301.217 68.8651 302.516 68.8438C303.917 68.8209 305.318 68.888 306.719 69.0156C307.988 69.1314 309.263 69.1751 310.531 69.1719C311.81 69.1685 313.096 69.1218 314.375 69.0156C315.723 68.9037 317.074 68.7995 318.422 68.7188C319.852 68.6331 321.289 68.658 322.719 68.7812C323.98 68.8898 325.24 68.9303 326.5 68.9062C327.853 68.8803 329.21 68.8771 330.562 68.8906C331.922 68.9042 333.281 68.9456 334.641 69.0156C335.941 69.0827 337.247 69.1232 338.547 69.125C339.807 69.1267 341.067 69.0532 342.328 68.9219C343.819 68.7663 345.321 68.7863 346.812 68.9844C347.946 69.1347 349.07 69.118 350.188 68.9219C351.427 68.7042 352.639 68.4075 353.828 68.0469C355.059 67.6733 356.287 67.2607 357.5 66.8125C358.57 66.4169 359.569 65.8843 360.484 65.2031C361.529 64.4258 362.552 63.6188 363.562 62.7969C364.46 62.0671 365.244 61.235 365.922 60.2969C366.667 59.265 367.37 58.202 368.016 57.1094C368.648 56.0392 369.209 54.9188 369.703 53.7656C370.148 52.7241 370.421 51.6429 370.531 50.5156C370.663 49.164 370.816 47.8136 370.984 46.4688C371.142 45.2057 371.241 43.9403 371.281 42.6719C371.32 41.4409 371.275 40.2018 371.125 38.9688C370.945 37.4866 370.923 35.9987 371.078 34.5156C371.199 33.357 371.166 32.1933 370.984 31.0312C370.75 29.5284 370.715 28.0137 370.875 26.5C370.99 25.4049 370.899 24.3329 370.609 23.2812C370.28 22.0862 369.862 20.9304 369.359 19.8125C368.812 18.5942 368.276 17.3623 367.734 16.125C367.317 15.1729 366.706 14.3634 365.906 13.6875C364.789 12.7434 363.765 11.7077 362.828 10.5938C362.136 9.77061 361.312 9.12851 360.359 8.64062C359.24 8.06797 358.1 7.562 356.938 7.14062C355.761 6.71427 354.566 6.34795 353.359 6.04688C352.153 5.74612 350.929 5.50628 349.688 5.32812C348.472 5.15391 347.238 5.07563 346 5.07812C344.615 5.08081 343.229 5.02976 341.844 4.92188C340.567 4.82245 339.292 4.77155 338.016 4.78125C336.709 4.79119 335.401 4.8186 334.094 4.875C332.711 4.93476 331.32 4.95047 329.938 4.90625C328.7 4.86666 327.458 4.90853 326.219 5.04688C324.724 5.21358 323.228 5.1992 321.734 5C320.586 4.84693 319.431 4.86364 318.281 5.03125C316.858 5.23842 315.427 5.34031 314 5.34375C312.63 5.34696 311.26 5.31154 309.891 5.23438C308.511 5.1566 307.128 5.03505 305.75 4.85938C304.616 4.71483 303.481 4.72851 302.344 4.92188C300.912 5.16632 299.468 5.30396 298.031 5.32812C296.646 5.35137 295.26 5.31002 293.875 5.21875C292.556 5.13171 291.225 5.07373 289.906 5.01562C288.599 4.95808 287.292 4.91931 285.984 4.90625C284.69 4.89337 283.388 4.92176 282.094 4.98438C280.709 5.05128 279.323 5.06081 277.938 5.01562C276.586 4.97146 275.227 4.90931 273.875 4.82812C272.64 4.75419 271.407 4.76916 270.172 4.875C268.756 4.99636 267.338 5.02684 265.922 4.96875C264.671 4.91727 263.408 4.94435 262.156 5.04688C260.782 5.15928 259.406 5.21605 258.031 5.23438C256.642 5.25278 255.248 5.2222 253.859 5.125C252.562 5.03421 251.266 4.97459 249.969 4.95312C248.595 4.93042 247.217 4.87112 245.844 4.76562C244.687 4.67694 243.524 4.73745 242.359 4.95312C240.885 5.22579 239.403 5.33786 237.922 5.28125C236.616 5.23138 235.305 5.19942 234 5.20312C232.646 5.20691 231.292 5.18281 229.938 5.14062C228.568 5.09797 227.197 5.02258 225.828 4.90625C224.588 4.80099 223.349 4.77805 222.109 4.84375C220.784 4.91418 219.45 4.99128 218.125 5.07812C216.698 5.17139 215.27 5.17367 213.844 5.0625C212.554 4.962 211.258 4.90698 209.969 4.89062C208.687 4.87452 207.407 4.90568 206.125 4.98438C204.752 5.06873 203.373 5.10724 202 5.10938C200.677 5.11145 199.354 5.11968 198.031 5.14062C196.724 5.16133 195.417 5.21013 194.109 5.28125C192.662 5.35998 191.211 5.3082 189.766 5.14062C188.561 5.00128 187.359 4.98902 186.156 5.07812C184.723 5.18486 183.277 5.17163 181.844 5.0625C180.627 4.9701 179.405 4.99218 178.188 5.10938C176.742 5.24825 175.29 5.25101 173.844 5.14062C172.589 5.04506 171.332 5.02768 170.078 5.07812C168.715 5.1329 167.347 5.16325 165.984 5.15625C164.594 5.14895 163.202 5.0677 161.812 4.9375C160.516 4.81605 159.218 4.73999 157.922 4.6875C156.684 4.63741 155.443 4.67349 154.203 4.79688Z" fill="#1C2F47"/>
</svg>
