<svg width="384" height="694" viewBox="0 0 384 694" fill="none" xmlns="http://www.w3.org/2000/svg">
<g clip-path="url(#clip0_100_198)">
<rect width="384" height="694" fill="#7CABA2"/>
<path d="M254.859 480.98C254.858 478.753 254.762 476.507 254.559 474.281C254.334 471.815 254.269 469.342 254.34 466.871C254.406 464.575 254.428 462.276 254.422 459.98C254.416 457.656 254.388 455.332 254.367 453.008C254.346 450.729 254.273 448.45 254.148 446.172C254.016 443.768 253.962 441.359 253.984 438.953C254.006 436.641 254.004 434.32 253.984 432.008C253.965 429.756 253.879 427.505 253.711 425.254C253.524 422.747 253.52 420.217 253.711 417.707C253.875 415.536 253.905 413.365 253.766 411.199C253.614 408.843 253.481 406.474 253.383 404.117C253.284 401.759 253.228 399.395 253.191 397.035C253.154 394.668 253.128 392.294 253.164 389.926C253.198 387.639 253.191 385.348 253.137 383.062C253.079 380.64 253.14 378.214 253.273 375.789C253.394 373.583 253.395 371.374 253.273 369.172C253.143 366.814 253.021 364.448 252.945 362.09C252.869 359.739 252.813 357.387 252.781 355.035C252.748 352.612 252.816 350.187 252.973 347.762C253.11 345.628 253.066 343.494 252.836 341.363C252.561 338.824 252.514 336.28 252.699 333.734C252.861 331.509 252.935 329.284 252.891 327.062C252.843 324.705 252.807 322.338 252.809 319.98C252.81 317.729 252.744 315.477 252.59 313.227C252.427 310.852 252.309 308.466 252.234 306.09C252.159 303.685 252.155 301.277 252.234 298.871C252.307 296.673 252.244 294.477 252.07 292.281C251.88 289.881 251.783 287.466 251.742 285.062C251.702 282.723 251.656 280.375 251.633 278.035C251.61 275.686 251.614 273.33 251.633 270.98C251.652 268.647 251.669 266.287 251.688 263.953C251.706 261.584 251.773 259.214 251.879 256.844C251.977 254.661 251.929 252.461 251.742 250.281C251.528 247.768 251.502 245.252 251.688 242.734C251.852 240.508 251.925 238.285 251.879 236.062C251.83 233.73 251.788 231.396 251.742 229.062C251.697 226.767 251.612 224.467 251.496 222.172C251.378 219.83 251.26 217.486 251.168 215.145C251.076 212.815 250.992 210.474 250.895 208.145C250.792 205.694 250.825 203.242 250.977 200.789C251.118 198.504 251.207 196.209 251.25 193.926C251.293 191.638 251.29 189.35 251.25 187.062C251.211 184.808 251.086 182.534 250.895 180.281C250.688 177.844 250.596 175.394 250.621 172.953C250.645 170.638 250.652 168.323 250.648 166.008C250.645 164.299 250.594 161.957 250.539 158.98C250.212 158.993 249.857 159.019 249.473 159.035C247.081 159.133 244.676 159.171 242.281 159.145C240.068 159.12 237.845 159.213 235.637 159.418C233.242 159.64 230.845 159.785 228.445 159.855C226.062 159.925 223.667 159.946 221.281 159.91C218.948 159.875 216.614 159.84 214.281 159.801C212.014 159.762 209.736 159.796 207.473 159.883C205.208 159.97 202.926 160.129 200.664 160.348C198.181 160.587 195.69 160.638 193.199 160.539C190.914 160.449 188.619 160.421 186.336 160.43C184.101 160.438 181.868 160.521 179.637 160.703C177.201 160.902 174.75 160.981 172.309 160.949C170.051 160.92 167.781 160.966 165.527 161.086C163.213 161.209 160.895 161.368 158.582 161.523C156.16 161.686 153.735 161.728 151.309 161.688C148.979 161.648 146.638 161.612 144.309 161.578C142.094 161.546 139.873 161.631 137.664 161.824C135.167 162.043 132.649 162.075 130.145 161.934C127.909 161.808 125.676 161.796 123.445 161.852C121.216 161.907 118.972 162.037 116.746 162.289C114.266 162.57 111.771 162.696 109.281 162.645C106.984 162.597 104.687 162.576 102.391 162.59C100.158 162.603 97.9199 162.712 95.6914 162.918C93.2255 163.146 90.7547 163.232 88.2812 163.164C85.9411 163.099 83.5944 163.025 81.2539 162.945C79.1026 162.872 76.9457 162.979 74.8008 163.246C72.2828 163.559 69.7563 163.656 67.2266 163.547C65.0011 163.451 62.7744 163.458 60.5547 163.574C58.1235 163.702 55.6898 163.714 53.2539 163.629C51.1218 163.554 48.9816 163.66 46.8555 163.957C44.3726 164.304 41.885 164.481 39.3906 164.477C36.9991 164.472 34.5932 164.407 32.1992 164.285C29.9902 164.173 27.7845 164.189 25.582 164.312C23.2697 164.443 20.9482 164.583 18.6367 164.75C16.2146 164.925 13.7904 164.996 11.3633 164.969C9.09537 164.943 6.81957 164.98 4.55469 165.078C2.21672 165.179 -0.134376 165.291 -2.47266 165.379C-4.85028 165.469 -7.22939 165.499 -9.60938 165.488C-11.8869 165.478 -14.1703 165.531 -16.4453 165.625C-18.829 165.724 -21.223 165.75 -23.6094 165.734C-25.9473 165.718 -28.2985 165.71 -30.6367 165.68C-32.8138 165.651 -35 165.748 -37.1719 166.008C-39.7243 166.313 -42.2914 166.372 -44.8555 166.172C-47.0343 166.001 -49.221 165.968 -51.3906 166.09C-53.7178 166.221 -56.0636 166.361 -58.3906 166.5C-60.7409 166.64 -63.0939 166.761 -65.4453 166.855C-67.8741 166.953 -70.3131 166.961 -72.7461 166.855C-74.9882 166.758 -77.2354 166.749 -79.4727 166.828C-81.8206 166.911 -84.1785 166.974 -86.5273 167.02C-88.7888 167.064 -91.0498 167.151 -93.3086 167.32C-95.7507 167.503 -98.2162 167.592 -100.664 167.539C-102.861 167.492 -105.063 167.551 -107.254 167.758C-109.702 167.988 -112.154 168.09 -114.609 168.059C-116.941 168.029 -119.278 168.009 -121.609 167.977C-123.795 167.946 -125.991 168.034 -128.172 168.277C-130.661 168.555 -133.165 168.676 -135.664 168.605C-138.015 168.539 -140.367 168.461 -142.719 168.359C-144.936 168.264 -147.152 168.256 -149.363 168.387C-151.694 168.524 -154.032 168.66 -156.363 168.797C-158.715 168.935 -161.066 169.062 -163.418 169.152C-165.857 169.246 -168.303 169.232 -170.746 169.098C-172.908 168.979 -175.072 169.009 -177.227 169.207C-179.589 169.425 -181.972 169.604 -184.336 169.754C-186.705 169.904 -189.074 170.025 -191.445 170.082C-193.86 170.14 -196.301 170.111 -198.719 170C-200.919 169.899 -203.115 169.911 -205.309 170.055C-207.683 170.211 -210.068 170.324 -212.445 170.383C-214.873 170.442 -217.315 170.411 -219.746 170.273C-221.901 170.152 -224.052 170.178 -226.199 170.383C-228.688 170.621 -231.194 170.686 -233.691 170.574C-235.88 170.476 -238.072 170.512 -240.254 170.684C-242.627 170.87 -245.015 171.026 -247.391 171.121C-249.696 171.214 -252.004 171.333 -254.309 171.477C-256.757 171.63 -259.21 171.656 -261.664 171.559C-263.89 171.47 -266.115 171.495 -268.336 171.613C-270.789 171.744 -273.261 171.738 -275.719 171.613C-277.838 171.506 -279.951 171.585 -282.062 171.859C-284.613 172.192 -287.182 172.274 -289.746 172.105C-291.89 171.964 -294.037 171.998 -296.172 172.215C-298.647 172.466 -301.126 172.559 -303.609 172.488C-305.824 172.425 -308.045 172.486 -310.254 172.652C-312.676 172.834 -315.101 172.912 -317.527 172.898C-319.846 172.885 -322.182 172.881 -324.5 172.898C-326.769 172.915 -329.043 172.982 -331.309 173.117C-333.695 173.259 -336.083 173.368 -338.473 173.391C-340.814 173.413 -343.158 173.412 -345.5 173.418C-347.794 173.424 -350.098 173.472 -352.391 173.555C-354.686 173.637 -356.987 173.763 -359.281 173.91C-361.738 174.067 -365.276 174.05 -369.836 173.965L-369.809 173.992H-369.918L-369.945 173.965L-369.973 173.992V173.965C-371.88 173.981 -373.454 172.488 -373.5 170.574C-373.541 168.646 -372.011 167.039 -370.082 166.992H-369.836C-365.256 167.079 -361.9 167.05 -359.719 166.91C-357.359 166.759 -354.998 166.639 -352.637 166.555C-350.27 166.47 -347.896 166.424 -345.527 166.418C-343.201 166.412 -340.853 166.412 -338.527 166.391C-336.256 166.369 -333.987 166.279 -331.719 166.145C-329.327 166.002 -326.922 165.916 -324.527 165.898C-322.185 165.881 -319.843 165.885 -317.5 165.898C-315.26 165.911 -313.009 165.82 -310.773 165.652C-308.325 165.468 -305.872 165.418 -303.418 165.488C-301.237 165.551 -299.058 165.49 -296.883 165.27C-294.361 165.014 -291.813 164.966 -289.281 165.133C-287.175 165.271 -285.062 165.187 -282.965 164.914C-280.438 164.586 -277.903 164.485 -275.363 164.613C-273.149 164.726 -270.927 164.731 -268.719 164.613C-266.28 164.483 -263.834 164.462 -261.391 164.559C-259.173 164.647 -256.957 164.615 -254.746 164.477C-252.39 164.329 -250.022 164.216 -247.664 164.121C-245.384 164.029 -243.106 163.89 -240.828 163.711C-238.356 163.516 -235.869 163.491 -233.391 163.602C-231.219 163.699 -229.047 163.644 -226.883 163.438C-224.378 163.198 -221.85 163.131 -219.336 163.273C-217.1 163.4 -214.867 163.437 -212.637 163.383C-210.352 163.327 -208.056 163.232 -205.773 163.082C-203.316 162.92 -200.855 162.887 -198.391 163C-196.139 163.104 -193.884 163.136 -191.637 163.082C-189.351 163.027 -187.057 162.926 -184.773 162.781C-182.477 162.635 -180.178 162.446 -177.883 162.234C-175.383 162.003 -172.872 161.96 -170.363 162.098C-168.136 162.22 -165.913 162.238 -163.691 162.152C-161.385 162.064 -159.079 161.959 -156.773 161.824C-154.443 161.688 -152.104 161.551 -149.773 161.414C-147.325 161.27 -144.872 161.253 -142.418 161.359C-140.102 161.459 -137.787 161.54 -135.473 161.605C-133.303 161.667 -131.128 161.573 -128.965 161.332C-126.493 161.056 -124.008 160.942 -121.527 160.977C-119.195 161.009 -116.86 161.029 -114.527 161.059C-112.32 161.087 -110.113 160.992 -107.91 160.785C-105.447 160.553 -102.97 160.485 -100.5 160.539C-98.278 160.587 -96.045 160.514 -93.8281 160.348C-91.4419 160.169 -89.0537 160.066 -86.6641 160.02C-84.352 159.975 -82.03 159.91 -79.7188 159.828C-77.2982 159.742 -74.8698 159.75 -72.4453 159.855C-70.2062 159.953 -67.9527 159.945 -65.7188 159.855C-63.4125 159.763 -61.106 159.665 -58.8008 159.527C-56.4686 159.389 -54.1332 159.249 -51.8008 159.117C-49.3122 158.977 -46.803 159.003 -44.3086 159.199C-42.2064 159.364 -40.1113 159.312 -38.0195 159.062C-35.5395 158.766 -33.0444 158.647 -30.5547 158.68C-28.2303 158.71 -25.906 158.718 -23.582 158.734C-21.3046 158.75 -19.0209 158.719 -16.7461 158.625C-14.3605 158.526 -11.9702 158.477 -9.58203 158.488C-7.30223 158.499 -5.02354 158.465 -2.74609 158.379C-0.420579 158.291 1.9287 158.206 4.25391 158.105C6.64544 158.002 9.05075 157.942 11.4453 157.969C13.6785 157.993 15.9157 157.938 18.1445 157.777C20.4868 157.608 22.8287 157.444 25.1719 157.312C27.6258 157.174 30.0952 157.187 32.5547 157.312C34.8327 157.429 37.1157 157.472 39.3906 157.477C41.5596 157.481 43.7338 157.342 45.8984 157.039C48.424 156.686 50.9609 156.54 53.5 156.629C55.7329 156.707 57.9714 156.691 60.1992 156.574C62.6386 156.447 65.0829 156.442 67.5273 156.547C69.6635 156.639 71.7966 156.565 73.9258 156.301C76.4313 155.989 78.9558 155.86 81.4727 155.945C83.8012 156.025 86.1444 156.099 88.4727 156.164C90.6634 156.225 92.8503 156.147 95.0352 155.945C97.4621 155.721 99.9032 155.604 102.336 155.59C104.701 155.576 107.079 155.595 109.445 155.645C111.618 155.689 113.786 155.589 115.953 155.344C118.379 155.069 120.822 154.912 123.254 154.852C125.682 154.791 128.123 154.824 130.555 154.961C132.719 155.083 134.879 155.04 137.035 154.852C139.479 154.637 141.94 154.543 144.391 154.578C146.728 154.612 149.08 154.648 151.418 154.688C153.653 154.725 155.886 154.673 158.117 154.523C160.464 154.366 162.825 154.238 165.172 154.113C167.576 153.986 169.983 153.918 172.391 153.949C174.615 153.978 176.843 153.912 179.062 153.73C181.475 153.534 183.891 153.439 186.309 153.43C188.691 153.421 191.088 153.472 193.473 153.566C195.65 153.652 197.837 153.585 200.008 153.375C202.401 153.144 204.802 152.975 207.199 152.883C209.594 152.791 211.993 152.76 214.391 152.801C216.722 152.84 219.059 152.875 221.391 152.91C223.671 152.944 225.949 152.922 228.227 152.855C230.485 152.79 232.753 152.655 235.008 152.445C237.454 152.218 239.91 152.118 242.363 152.145C244.634 152.169 246.904 152.155 249.172 152.062C249.572 152.046 249.959 152.021 250.32 152.008C250.185 149.141 250.094 146.862 250.02 145.172C249.92 142.911 249.76 140.645 249.527 138.391C249.276 135.955 249.128 133.511 249.117 131.062C249.107 128.801 249.046 126.535 248.898 124.281C248.744 121.912 248.616 119.518 248.543 117.145C248.473 114.864 248.37 112.585 248.215 110.309C248.052 107.919 247.949 105.514 247.914 103.117C247.881 100.884 247.758 98.6411 247.531 96.418C247.37 94.8222 247.513 93.0398 248.461 91.4688C249.464 89.8125 251.041 88.8882 252.699 88.4883C254.906 87.956 257.292 87.6807 259.836 87.6406C262.069 87.6058 264.31 87.4846 266.535 87.2578C268.951 87.0117 271.384 86.8477 273.809 86.793C276.168 86.7398 278.529 86.7252 280.891 86.7383C283.104 86.7506 285.332 86.6574 287.535 86.4375C289.954 86.1965 292.381 86.0389 294.809 86C295.989 85.9811 296.989 85.9138 297.816 85.8906C297.675 82.9923 297.567 80.7057 297.461 79.0273C297.31 76.6474 297.206 74.2489 297.16 71.8633C297.117 69.6428 296.976 67.428 296.723 65.2188C296.438 62.7412 296.318 60.2494 296.367 57.7539C296.411 55.4978 296.368 53.2469 296.258 51C296.15 48.809 295.935 46.6169 295.574 44.4375C295.153 41.8955 294.99 39.3256 295.082 36.7539C295.16 34.6059 295.051 32.456 294.781 30.3281C294.472 27.8884 294.286 25.4274 294.234 22.9727C294.188 20.7501 294.055 18.5121 293.797 16.3008C293.517 13.9075 293.289 11.5119 293.168 9.10938C293.045 6.66509 293.047 4.20982 293.168 1.75391C293.273 -0.370512 293.18 -2.48856 292.895 -4.58984C292.555 -7.08097 292.418 -9.59692 292.457 -12.1094L292.293 -16.7578L292.047 -18.3711L292.02 -18.5352V-18.6992L291.992 -18.8086C291.887 -20.7356 293.374 -22.3904 295.301 -22.5C297.155 -22.6028 298.693 -21.2291 298.91 -19.4102L298.965 -19.4375L299.211 -17.8242V-17.7969C299.425 -16.3583 299.494 -14.3755 299.457 -12C299.423 -9.84029 299.548 -7.68892 299.84 -5.54688C300.185 -3.01646 300.294 -0.472972 300.168 2.08203C300.058 4.30977 300.057 6.54036 300.168 8.75391C300.281 11.007 300.48 13.2625 300.742 15.5078C301.026 17.9345 301.183 20.3686 301.234 22.8086C301.28 25.0171 301.448 27.2295 301.727 29.4258C302.045 31.9347 302.146 34.4693 302.055 37C301.979 39.1049 302.119 41.2062 302.465 43.2891C302.87 45.7321 303.137 48.1834 303.258 50.6445C303.376 53.0536 303.414 55.4731 303.367 57.8906C303.324 60.0741 303.419 62.259 303.668 64.4258C303.946 66.8531 304.113 69.2861 304.16 71.7266C304.204 74.0097 304.316 76.3123 304.461 78.5898C304.57 80.3097 304.648 82.6281 304.789 85.5352C307.715 85.315 310.056 85.1412 311.789 85.043C314.147 84.9093 316.51 84.8114 318.871 84.7422C321.187 84.6743 323.502 84.5938 325.816 84.4961C328.122 84.3988 330.431 84.2844 332.734 84.1406C335.171 83.9885 337.617 83.9549 340.062 84.0312C342.218 84.0988 344.374 83.9949 346.516 83.7305C348.956 83.4287 351.419 83.2359 353.871 83.1836C356.178 83.1343 358.484 83.0793 360.789 82.9922C363.188 82.9014 365.603 82.887 368.008 82.9375C370.286 82.9854 372.571 82.9509 374.844 82.8828C377.032 82.8171 379.227 82.6406 381.406 82.3086C383.869 81.9339 386.338 81.7096 388.816 81.6523C391.144 81.5988 393.489 81.526 395.816 81.4609C398.115 81.3966 400.411 81.3044 402.707 81.1875C405.08 81.0666 407.466 80.9936 409.844 80.9688C412.205 80.9442 414.59 80.9672 416.953 80.9961C419.164 81.0227 421.37 80.9261 423.57 80.7227C425.955 80.5022 428.344 80.3498 430.734 80.2578C433.08 80.1678 435.442 80.0741 437.789 80.0117C440.052 79.9515 442.313 79.8428 444.57 79.6562C446.944 79.4599 449.329 79.3163 451.707 79.2188C453.983 79.1254 456.272 78.9831 458.543 78.7812C461.03 78.5606 463.535 78.4888 466.035 78.6172C468.212 78.7285 470.38 78.6921 472.543 78.5078C474.9 78.3068 477.265 78.1523 479.625 78.0156C482.009 77.8776 484.4 77.7916 486.789 77.7695C489.12 77.7481 491.458 77.7158 493.789 77.6875C496.015 77.6605 498.243 77.5367 500.461 77.3047C502.889 77.0509 505.323 76.9203 507.762 76.8945C510.057 76.8706 512.36 76.7968 514.652 76.7031C516.911 76.6107 519.181 76.4451 521.434 76.2109C522.68 76.0815 523.929 76.0059 525.18 75.9648H532.152C533.237 75.9259 534.325 75.8653 535.406 75.7461C537.781 75.4843 540.163 75.2713 542.543 75.1172C544.893 74.965 547.245 74.8343 549.598 74.7344C552.033 74.631 554.483 74.6487 556.926 74.7617C559.164 74.8652 561.397 74.8532 563.625 74.7617C565.876 74.6693 568.134 74.5169 570.379 74.2695C572.746 74.0088 575.117 73.78 577.488 73.6133C579.826 73.449 582.177 73.2922 584.516 73.1484C586.996 72.9965 589.488 73.0254 591.98 73.2031C594.18 73.3598 596.385 73.3689 598.57 73.2578C600.859 73.1414 603.147 73.0019 605.434 72.8203C607.802 72.6321 610.198 72.4876 612.57 72.3828C614.882 72.2806 617.205 72.1584 619.516 72.0273C621.866 71.8941 624.218 71.7813 626.57 71.6992C628.91 71.6176 631.257 71.546 633.598 71.4805C635.877 71.4166 638.158 71.2904 640.434 71.125C642.754 70.9563 645.086 70.7859 647.406 70.6055C649.835 70.4169 652.269 70.3298 654.707 70.3594C656.96 70.3867 659.19 70.3568 661.379 70.2227L661.57 73.6133L661.516 73.6406C662.041 75.3391 663.737 76.7582 664.168 76.8945C664.335 76.9312 664.6 76.9673 664.688 76.9766C664.805 76.9871 664.899 77.0033 664.934 77.0039H664.988C664.849 77.0122 664.639 77.0143 664.359 77.0312C663.791 77.0657 662.927 77.1256 661.789 77.1953C659.429 77.3397 657.041 77.3886 654.625 77.3594C652.393 77.3323 650.149 77.4052 647.926 77.5781C645.596 77.7593 643.256 77.9556 640.926 78.125C638.55 78.2975 636.17 78.4138 633.789 78.4805C631.465 78.5455 629.14 78.6182 626.816 78.6992C624.51 78.7796 622.203 78.8693 619.898 79C617.557 79.1328 615.214 79.252 612.871 79.3555C610.583 79.4565 608.292 79.6115 606.008 79.793C603.651 79.9803 601.286 80.1378 598.926 80.2578C596.456 80.3833 593.969 80.3522 591.488 80.1758C589.299 80.0196 587.1 80.0148 584.926 80.1484C582.61 80.2908 580.295 80.4506 577.98 80.6133C575.701 80.7735 573.42 80.9642 571.145 81.2148C568.745 81.4792 566.333 81.6626 563.926 81.7617C561.492 81.8616 559.039 81.8473 556.598 81.7344C554.361 81.631 552.125 81.6399 549.898 81.7344C547.595 81.8322 545.282 81.9408 542.98 82.0898C540.709 82.2371 538.439 82.4414 536.172 82.6914C534.927 82.8287 533.675 82.9194 532.426 82.9648H525.398C524.315 83.0007 523.224 83.0713 522.145 83.1836C519.751 83.4323 517.354 83.6048 514.953 83.7031C512.586 83.8 510.214 83.8698 507.844 83.8945C505.619 83.9177 503.388 84.0455 501.172 84.2773C498.744 84.5309 496.309 84.6579 493.871 84.6875C491.538 84.7158 489.205 84.7481 486.871 84.7695C484.594 84.7905 482.307 84.8568 480.035 84.9883C477.737 85.1213 475.44 85.3121 473.145 85.5078C470.658 85.7198 468.151 85.7455 465.652 85.6172C463.478 85.5061 461.304 85.562 459.145 85.7539C456.769 85.9649 454.389 86.0936 452.008 86.1914C449.725 86.285 447.423 86.4404 445.145 86.6289C442.76 86.8259 440.371 86.948 437.98 87.0117C435.661 87.0733 433.326 87.1689 431.008 87.2578C428.745 87.3448 426.484 87.4867 424.227 87.6953C421.783 87.9213 419.325 88.0256 416.871 87.9961C414.561 87.9679 412.234 87.9448 409.926 87.9688C407.64 87.9926 405.344 88.0712 403.062 88.1875C400.712 88.3072 398.361 88.3951 396.008 88.4609C393.669 88.5263 391.319 88.5986 388.98 88.6523C386.799 88.7026 384.617 88.8957 382.445 89.2266C379.988 89.6006 377.508 89.8088 375.035 89.8828C372.649 89.954 370.262 89.9604 367.871 89.9102C365.602 89.8624 363.325 89.9066 361.062 89.9922C358.713 90.081 356.359 90.1334 354.008 90.1836C351.797 90.2309 349.592 90.4038 347.391 90.6758C344.889 90.9851 342.363 91.0828 339.844 91.0039C337.616 90.9344 335.39 90.9748 333.172 91.1133C330.821 91.26 328.47 91.3968 326.117 91.4961C323.771 91.5951 321.41 91.6734 319.062 91.7422C316.766 91.8096 314.466 91.9129 312.172 92.043C309.882 92.1729 306.443 92.4209 301.863 92.7812H301.59L300.113 92.8633C298.996 92.9234 297.251 92.9626 294.918 93C292.682 93.0358 290.447 93.1877 288.219 93.4102C285.773 93.6542 283.32 93.7518 280.863 93.7383C278.56 93.7254 276.246 93.741 273.945 93.793C271.708 93.8437 269.476 94.0033 267.246 94.2305C264.821 94.4776 262.38 94.6027 259.945 94.6406C257.885 94.6732 256.069 94.8975 254.477 95.2695C254.473 95.3785 254.458 95.5227 254.477 95.707C254.724 98.1304 254.878 100.573 254.914 103.008C254.948 105.279 255.033 107.552 255.188 109.816C255.35 112.188 255.47 114.576 255.543 116.953C255.613 119.242 255.722 121.532 255.871 123.816C256.028 126.215 256.107 128.629 256.117 131.035C256.127 133.252 256.245 135.474 256.473 137.68C256.719 140.064 256.914 142.451 257.02 144.844C257.121 147.164 257.265 150.626 257.484 155.207V155.316L257.512 155.371V155.535L257.648 165.98C257.653 168.328 257.645 170.688 257.621 173.035C257.598 175.258 257.679 177.486 257.867 179.707C258.071 182.112 258.208 184.518 258.25 186.926C258.291 189.301 258.294 191.686 258.25 194.062C258.205 196.446 258.097 198.842 257.949 201.227C257.813 203.434 257.802 205.64 257.895 207.844C257.992 210.179 258.076 212.536 258.168 214.871C258.259 217.186 258.352 219.502 258.469 221.816C258.588 224.184 258.696 226.557 258.742 228.926C258.788 231.256 258.831 233.596 258.879 235.926C258.929 238.366 258.868 240.812 258.688 243.254C258.529 245.404 258.532 247.562 258.715 249.707C258.926 252.184 258.963 254.663 258.852 257.145C258.749 259.432 258.705 261.722 258.688 264.008C258.669 266.342 258.652 268.701 258.633 271.035C258.614 273.341 258.61 275.647 258.633 277.953C258.656 280.275 258.675 282.604 258.715 284.926C258.753 287.184 258.864 289.451 259.043 291.707C259.239 294.169 259.316 296.651 259.234 299.117C259.16 301.369 259.137 303.621 259.207 305.871C259.279 308.156 259.406 310.45 259.562 312.734C259.728 315.144 259.81 317.568 259.809 319.98C259.807 322.29 259.817 324.617 259.863 326.926C259.912 329.363 259.85 331.815 259.672 334.254C259.519 336.37 259.554 338.485 259.781 340.598C260.054 343.124 260.108 345.666 259.945 348.199C259.801 350.439 259.751 352.689 259.781 354.926C259.813 357.237 259.871 359.561 259.945 361.871C260.02 364.177 260.118 366.484 260.246 368.789C260.382 371.249 260.381 373.709 260.246 376.172C260.123 378.415 260.084 380.659 260.137 382.898C260.193 385.276 260.2 387.657 260.164 390.035C260.13 392.332 260.156 394.63 260.191 396.926C260.227 399.228 260.287 401.542 260.383 403.844C260.479 406.148 260.59 408.458 260.738 410.762C260.898 413.255 260.9 415.758 260.711 418.254C260.548 420.408 260.524 422.558 260.684 424.707C260.863 427.115 260.963 429.543 260.984 431.953C261.005 434.304 261.007 436.656 260.984 439.008C260.963 441.266 261.024 443.532 261.148 445.789C261.279 448.173 261.345 450.568 261.367 452.953C261.388 455.286 261.416 457.62 261.422 459.953C261.428 462.323 261.381 464.719 261.312 467.09C261.25 469.279 261.332 471.466 261.531 473.652C261.754 476.088 261.858 478.541 261.859 480.98C261.86 483.401 261.773 485.832 261.586 488.254C261.561 488.578 261.549 488.879 261.531 489.156C264.554 489.088 266.953 489.061 268.723 489.047C270.959 489.03 273.192 488.922 275.422 488.719C277.895 488.493 280.376 488.412 282.859 488.5C285.122 488.58 287.384 488.588 289.641 488.527C291.846 488.468 294.059 488.304 296.258 488.008C298.778 487.668 301.323 487.534 303.859 487.625C306.022 487.702 308.188 487.618 310.34 487.379C312.804 487.105 315.275 486.988 317.75 487.023C320.08 487.057 322.42 487.083 324.75 487.105C327.004 487.127 329.255 487.074 331.504 486.941C333.903 486.799 336.318 486.722 338.723 486.723C340.895 486.723 343.066 486.58 345.23 486.285C347.694 485.95 350.165 485.767 352.641 485.738C354.901 485.713 357.166 485.633 359.422 485.465C361.923 485.279 364.43 485.278 366.941 485.465C369.16 485.63 371.378 485.671 373.586 485.602C375.829 485.531 378.075 485.377 380.312 485.137C382.672 484.883 385.033 484.662 387.395 484.48C389.864 484.291 392.353 484.26 394.832 484.371C397.005 484.467 399.178 484.41 401.34 484.207C403.691 483.987 405.609 483.877 406.973 483.934H407L408.559 484.016L408.531 484.043C410.395 484.058 411.938 485.499 412.004 487.379C412.071 489.31 410.545 490.921 408.613 490.988H408.531L408.367 491.016L408.23 490.988L406.672 490.934C405.804 490.899 404.284 490.965 401.996 491.18C399.508 491.413 397.003 491.455 394.504 491.344C392.312 491.246 390.124 491.286 387.941 491.453C385.648 491.629 383.342 491.836 381.051 492.082C378.638 492.341 376.224 492.526 373.805 492.602C371.349 492.679 368.885 492.62 366.422 492.438C364.255 492.277 362.095 492.278 359.941 492.438C357.54 492.616 355.13 492.711 352.723 492.738C350.535 492.763 348.34 492.934 346.16 493.23C343.688 493.567 341.209 493.723 338.723 493.723C336.457 493.722 334.175 493.808 331.914 493.941C329.511 494.083 327.104 494.129 324.695 494.105C322.358 494.083 320.006 494.058 317.668 494.023C315.479 493.992 313.286 494.109 311.105 494.352C308.61 494.629 306.095 494.715 303.586 494.625C301.45 494.549 299.312 494.667 297.188 494.953C294.744 495.282 292.287 495.461 289.832 495.527C287.429 495.592 285.021 495.585 282.613 495.5C280.423 495.423 278.231 495.493 276.051 495.691C273.63 495.912 271.205 496.028 268.777 496.047C266.475 496.065 263.033 496.095 258.441 496.211L258.469 496.238H257.949C253.386 495.972 250.076 495.909 247.941 496.02C245.611 496.141 243.272 496.28 240.941 496.402C238.456 496.533 235.962 496.489 233.477 496.293C231.28 496.12 229.082 496.072 226.887 496.156C224.454 496.25 222.018 496.25 219.586 496.129C217.356 496.018 215.116 495.989 212.887 496.074C211.181 496.139 209.752 496.229 208.594 496.32C208.68 499.262 208.716 501.684 208.566 503.539C208.392 505.707 208.377 507.884 208.512 510.047C208.658 512.389 208.785 514.732 208.895 517.074C209.007 519.485 209.032 521.907 208.977 524.32C208.925 526.571 208.953 528.826 209.059 531.074C209.176 533.55 209.141 536.034 208.949 538.512C208.78 540.696 208.75 542.895 208.867 545.074C208.992 547.399 209.121 549.723 209.25 552.047C209.386 554.504 209.388 556.969 209.25 559.43C209.123 561.687 209.063 563.956 209.086 566.211C209.109 568.48 209.184 570.752 209.332 573.02C209.492 575.477 209.52 577.942 209.414 580.402C209.317 582.673 209.284 584.942 209.305 587.211C209.326 589.488 209.393 591.771 209.523 594.047C209.659 596.416 209.768 598.786 209.824 601.156C209.88 603.497 209.921 605.843 209.961 608.184C210.001 610.553 210.001 612.923 209.961 615.293C209.923 617.552 209.971 619.817 210.07 622.074C210.114 623.054 210.059 624.047 210.07 625.027L210.18 634.816C213.06 634.664 215.348 634.545 217.043 634.461C219.484 634.339 221.95 634.324 224.398 634.434C226.52 634.528 228.635 634.449 230.742 634.16C233.183 633.825 235.645 633.614 238.098 633.531C240.448 633.452 242.8 633.396 245.152 633.367C247.49 633.339 249.842 633.307 252.18 633.285C254.416 633.264 256.649 633.155 258.879 632.957C261.265 632.745 263.679 632.582 266.07 632.492C268.447 632.403 270.826 632.367 273.207 632.383C275.475 632.398 277.753 632.362 280.016 632.246C282.418 632.123 284.827 632.082 287.234 632.109C289.4 632.134 291.559 631.985 293.715 631.699C296.186 631.371 298.667 631.217 301.152 631.207C303.486 631.198 305.819 631.188 308.152 631.18C310.343 631.172 312.533 631.016 314.715 630.742C317.236 630.425 319.778 630.326 322.316 630.441C324.51 630.541 326.697 630.522 328.879 630.359C331.243 630.183 333.621 630.024 335.988 629.922C338.373 629.819 340.763 629.771 343.152 629.785C345.35 629.798 347.554 629.699 349.742 629.457C352.266 629.178 354.805 629.112 357.344 629.266C359.438 629.392 361.528 629.308 363.605 628.992C366.182 628.601 368.772 628.475 371.371 628.664C373.508 628.82 375.65 628.803 377.77 628.582C380.128 628.336 382.49 628.123 384.852 627.953C387.272 627.779 389.697 627.712 392.125 627.734C394.368 627.756 396.414 627.693 398.25 627.543C399.24 627.462 400.042 627.404 400.602 627.379C400.867 627.367 401.162 627.343 401.422 627.352C401.527 627.355 401.788 627.381 402.078 627.434C402.203 627.456 402.567 627.512 402.98 627.707C403.139 627.782 404.915 628.605 405.004 630.742L405.031 632.109L404.375 632.875C403.777 633.791 402.816 634.441 401.641 634.488H401.531L393.684 634.816L393.793 634.652C393.228 634.658 392.654 634.74 392.07 634.734C389.829 634.713 387.578 634.765 385.344 634.926C383.055 635.091 380.766 635.317 378.48 635.555C375.955 635.818 373.419 635.848 370.879 635.664C368.798 635.513 366.708 635.597 364.645 635.91C362.086 636.298 359.514 636.42 356.934 636.266C354.791 636.136 352.635 636.167 350.508 636.402C348.052 636.674 345.592 636.8 343.125 636.785C340.847 636.771 338.563 636.823 336.289 636.922C334 637.021 331.712 637.161 329.426 637.332C326.957 637.517 324.467 637.554 321.988 637.441C319.849 637.344 317.715 637.42 315.59 637.688C313.127 637.997 310.655 638.17 308.18 638.18C305.846 638.188 303.513 638.198 301.18 638.207C298.997 638.215 296.818 638.356 294.645 638.645C292.157 638.975 289.655 639.138 287.152 639.109C284.89 639.083 282.627 639.103 280.371 639.219C277.977 639.342 275.579 639.399 273.18 639.383C270.896 639.367 268.596 639.407 266.316 639.492C264.046 639.577 261.774 639.728 259.508 639.93C257.09 640.144 254.66 640.262 252.234 640.285C249.91 640.307 247.586 640.339 245.262 640.367C242.953 640.395 240.623 640.426 238.316 640.504C236.108 640.579 233.901 640.776 231.699 641.078C229.168 641.425 226.62 641.547 224.07 641.434C221.843 641.334 219.616 641.35 217.398 641.461C215.656 641.548 213.277 641.657 210.262 641.816C210.288 644.837 210.33 647.231 210.344 648.98C210.362 651.35 210.328 653.72 210.262 656.09C210.199 658.321 210.218 660.56 210.344 662.789C210.475 665.109 210.627 667.442 210.781 669.762C210.946 672.247 210.945 674.738 210.781 677.227C210.634 679.461 210.575 681.694 210.617 683.926C210.661 686.273 210.712 688.632 210.727 690.98C210.741 693.212 210.849 695.449 211.055 697.68C211.285 700.188 211.322 702.713 211.164 705.227C211.022 707.497 210.922 709.766 210.891 712.035C210.859 714.347 210.853 716.669 210.863 718.98C210.873 721.195 210.983 723.412 211.219 725.625C211.482 728.102 211.598 730.581 211.547 733.062C211.5 735.323 211.514 737.585 211.602 739.844C211.694 742.227 211.75 744.623 211.738 747.008C211.727 749.402 211.629 751.804 211.492 754.199C211.365 756.431 211.344 758.669 211.41 760.898C211.48 763.277 211.493 765.656 211.465 768.035C211.438 770.32 211.478 772.615 211.547 774.898C211.615 777.155 211.748 779.424 211.957 781.68C212.185 784.146 212.272 786.619 212.203 789.09C212.137 791.431 212.039 793.776 211.957 796.117C211.88 798.329 211.942 800.552 212.094 802.762C212.257 805.14 212.363 807.519 212.422 809.898C212.479 812.204 212.558 814.511 212.668 816.816C212.783 819.239 212.796 821.665 212.723 824.09C212.687 825.256 212.67 826.154 212.641 826.77C212.626 827.071 212.603 827.354 212.586 827.562C212.578 827.653 212.553 827.795 212.531 827.945C212.523 828.004 212.513 828.211 212.449 828.438C212.422 828.533 212.324 828.821 212.148 829.148C212.059 829.315 211.871 829.642 211.547 829.969C211.345 830.171 210.982 830.405 210.508 830.625C210.335 830.708 210.148 830.735 209.961 830.789C209.809 830.83 209.668 830.932 209.496 830.953L207.363 831.227L206.16 829.449L206.105 829.34H206.078C205.745 828.811 205.512 828.206 205.504 827.535V827.453L205.367 815.723L205.613 816.105C205.525 814.095 205.471 812.074 205.422 810.062C205.366 807.785 205.251 805.504 205.094 803.227C204.925 800.776 204.898 798.325 204.984 795.871C205.066 793.548 205.138 791.222 205.203 788.898C205.265 786.705 205.187 784.5 204.984 782.309C204.762 779.907 204.619 777.494 204.547 775.09C204.476 772.711 204.436 770.333 204.465 767.953C204.492 765.668 204.478 763.374 204.41 761.09C204.339 758.659 204.38 756.222 204.52 753.789C204.649 751.519 204.727 749.249 204.738 746.98L204.602 740.117C204.508 737.721 204.497 735.324 204.547 732.926C204.592 730.74 204.506 728.547 204.273 726.363C204.013 723.916 203.874 721.46 203.863 719.008C203.853 716.657 203.858 714.305 203.891 711.953C203.924 709.562 204.014 707.154 204.164 704.762C204.299 702.611 204.28 700.456 204.082 698.309C203.859 695.881 203.742 693.439 203.727 691.008C203.712 688.693 203.661 686.377 203.617 684.062C203.571 681.631 203.648 679.195 203.809 676.762C203.952 674.582 203.953 672.402 203.809 670.227C203.653 667.884 203.504 665.542 203.371 663.199C203.233 660.769 203.193 658.332 203.262 655.898C203.326 653.61 203.362 651.322 203.344 649.035C203.326 646.785 203.272 643.471 203.234 639.109C203.228 639.075 203.21 639.043 203.207 639.027C203.18 638.863 203.187 638.697 203.18 638.617C203.163 638.431 203.137 638.203 203.125 637.961C203.099 637.446 203.072 636.684 203.043 635.719C202.983 633.709 203.009 631.495 203.098 629.102C203.18 626.867 203.168 624.634 203.07 622.402C202.964 620 202.921 617.588 202.961 615.184C202.999 612.889 203 610.587 202.961 608.293C202.921 605.97 202.88 603.643 202.824 601.32C202.77 599.032 202.682 596.744 202.551 594.457C202.414 592.074 202.327 589.678 202.305 587.293C202.283 584.901 202.311 582.495 202.414 580.102C202.509 577.897 202.503 575.686 202.359 573.484C202.203 571.092 202.11 568.687 202.086 566.293C202.062 563.882 202.114 561.459 202.25 559.047C202.374 556.842 202.372 554.631 202.25 552.43C202.121 550.099 201.992 547.761 201.867 545.43C201.734 542.947 201.757 540.45 201.949 537.965C202.118 535.778 202.162 533.585 202.059 531.402C201.945 528.991 201.921 526.569 201.977 524.156C202.028 521.907 202 519.65 201.895 517.402C201.786 515.091 201.656 512.768 201.512 510.457C201.357 507.962 201.392 505.462 201.594 502.965C201.72 501.4 201.685 499.181 201.594 496.266C198.624 496.234 196.334 496.194 194.703 496.293C192.381 496.433 190.052 496.576 187.73 496.73C185.445 496.882 183.15 497.1 180.867 497.332C178.35 497.588 175.824 497.614 173.293 497.441C171.113 497.292 168.924 497.288 166.758 497.441C164.407 497.607 162.056 497.765 159.703 497.879C157.346 497.993 154.98 498.064 152.621 498.125C150.253 498.186 147.883 498.224 145.512 498.207C143.286 498.191 141.058 498.262 138.84 498.453C136.473 498.657 134.101 498.823 131.73 498.945C129.354 499.068 126.974 499.142 124.594 499.164C122.334 499.185 120.067 499.276 117.812 499.438C115.375 499.612 112.93 499.686 110.484 499.629C108.339 499.578 106.193 499.688 104.059 499.984C101.562 500.332 99.0515 500.482 96.5391 500.449C94.1981 500.418 91.8532 500.386 89.5117 500.34C87.3397 500.297 85.1657 500.414 83.0039 500.668C80.5039 500.963 77.9714 501.054 75.457 500.969C73.3276 500.897 71.2035 501.006 69.0859 501.297C66.6008 501.639 64.0941 501.804 61.5938 501.789C59.3353 501.775 57.0653 501.846 54.8125 501.98C52.4443 502.122 50.0747 502.23 47.7031 502.281C45.4037 502.331 43.0821 502.411 40.7852 502.527C38.4522 502.645 36.1186 502.751 33.7852 502.855C31.4262 502.961 29.0645 503.034 26.7031 503.074C24.3768 503.114 22.029 503.157 19.7031 503.211C17.3383 503.265 14.961 503.281 12.5938 503.266C10.3254 503.251 8.04877 503.294 5.78516 503.402C3.4635 503.513 1.13373 503.635 -1.1875 503.758C-3.45884 503.878 -5.72832 504.052 -7.99609 504.277C-10.5029 504.526 -13.023 504.563 -15.543 504.414C-15.7296 504.403 -15.9203 504.396 -16.0898 504.387L-18.7695 504.496H-18.8789C-20.8058 504.563 -22.415 503.06 -22.4883 501.133C-22.4896 501.098 -22.488 501.058 -22.4883 501.023L-22.625 500.367L-22.0508 499.273C-21.9821 499.14 -21.8553 499.032 -21.7773 498.918C-21.6443 498.741 -21.5037 498.575 -21.3398 498.426C-20.8089 497.899 -20.3109 497.643 -20.2188 497.605C-19.8994 497.476 -19.6301 497.41 -19.5078 497.387C-19.2458 497.337 -19.0085 497.339 -18.8789 497.332C-18.5905 497.316 -18.2437 497.298 -17.9219 497.305C-17.2542 497.318 -16.3101 497.371 -15.1328 497.441C-12.9833 497.569 -10.8426 497.516 -8.70703 497.305C-6.32709 497.069 -3.92726 496.884 -1.54297 496.758C0.789749 496.635 3.12389 496.541 5.45703 496.43C7.8504 496.315 10.2504 496.25 12.6484 496.266C14.9458 496.281 17.2443 496.264 19.5391 496.211C21.8776 496.157 24.2274 496.114 26.5664 496.074C28.863 496.035 31.1628 495.958 33.457 495.855C35.777 495.752 38.1102 495.644 40.4297 495.527C42.7937 495.408 45.1725 495.332 47.5391 495.281C49.8276 495.232 52.117 495.117 54.4023 494.98C56.8055 494.837 59.2123 494.774 61.6211 494.789C63.7888 494.803 65.9706 494.676 68.1289 494.379C70.6447 494.033 73.1699 493.883 75.7031 493.969C77.8644 494.042 80.0339 493.976 82.1836 493.723C84.6633 493.431 87.1554 493.291 89.6484 493.34C91.9729 493.386 94.2972 493.419 96.6211 493.449C98.7747 493.478 100.931 493.364 103.074 493.066C105.584 492.717 108.122 492.569 110.648 492.629C112.872 492.681 115.104 492.624 117.32 492.465C119.715 492.293 122.112 492.186 124.512 492.164C126.796 492.143 129.094 492.09 131.375 491.973C133.664 491.855 135.952 491.677 138.238 491.48C140.673 491.271 143.123 491.189 145.566 491.207C147.856 491.223 150.143 491.184 152.43 491.125C154.732 491.065 157.047 490.991 159.348 490.879C161.651 490.767 163.964 490.631 166.266 490.469C168.756 490.293 171.257 490.298 173.758 490.469C175.897 490.615 178.032 490.575 180.156 490.359C182.52 490.119 184.898 489.915 187.266 489.758C189.602 489.603 191.956 489.462 194.293 489.32C196.734 489.173 200.245 489.165 204.766 489.266H204.875L204.93 489.238H210.098C210.877 489.195 211.714 489.109 212.613 489.074C215.046 488.981 217.482 489.008 219.914 489.129C222.144 489.24 224.384 489.242 226.613 489.156C229.083 489.061 231.555 489.125 234.023 489.32C236.202 489.492 238.381 489.516 240.559 489.402C242.889 489.28 245.228 489.168 247.559 489.047C249.346 488.954 251.686 488.963 254.531 489.074C254.556 488.651 254.576 488.194 254.613 487.707C254.787 485.464 254.86 483.22 254.859 480.98ZM665.316 70.0039C665.404 70.0132 665.668 70.0492 665.836 70.0859C665.868 70.0961 665.9 70.1439 665.945 70.168C667.355 70.5677 668.418 71.7968 668.488 73.3398L668.652 76.7578L665.234 77.0039H665.043L664.852 73.5039L661.57 73.6133L661.379 70.2227C662.505 70.1537 663.353 70.0931 663.922 70.0586C664.207 70.0413 664.434 70.0125 664.578 70.0039H665.316Z" fill="#2D5F60"/>
<circle cx="34" cy="175" r="2" fill="#2D5F60"/>
<path d="M34.3008 172.52C34.5801 172.497 34.844 172.566 35.0781 172.719L35.293 172.855L35.5078 172.996C35.7219 173.136 35.892 173.323 36.0078 173.551L36.2344 173.996C36.3201 174.166 36.3983 174.369 36.4023 174.574L36.4062 174.715V174.754C36.4172 174.772 36.4318 174.784 36.4375 174.797C36.4727 174.875 36.4822 174.945 36.4844 174.969C36.4895 175.025 36.4829 175.078 36.4805 175.105C36.4748 175.17 36.4645 175.25 36.4492 175.336L36.4023 175.586L36.3594 175.836C36.3091 176.115 36.1697 176.355 35.9531 176.539L35.7617 176.703L35.5703 176.863C35.3918 177.015 35.1888 177.126 34.9648 177.191L34.5039 177.324C34.2787 177.39 34.0476 177.403 33.8164 177.363L33.3477 177.285C33.1183 177.246 32.9064 177.156 32.7148 177.023L32.5156 176.887L32.3125 176.746C32.0887 176.591 31.9296 176.373 31.8477 176.113L31.7773 175.883L31.7031 175.652C31.6402 175.452 31.606 175.246 31.6016 175.035L31.5977 174.789L31.5898 174.539C31.5843 174.254 31.6783 173.992 31.8594 173.773L32.0195 173.582L32.1758 173.391C32.3241 173.211 32.5038 173.066 32.7109 172.961L32.9258 172.852L33.1445 172.742C33.3482 172.639 33.5681 172.582 33.7969 172.562L34.0469 172.539L34.3008 172.52ZM34.1289 173.535L33.8789 173.559C33.7726 173.567 33.6782 173.594 33.5938 173.637L33.3789 173.746L33.1602 173.855C33.0794 173.897 33.0077 173.952 32.9453 174.027L32.7891 174.219L32.6289 174.41C32.5994 174.446 32.589 174.476 32.5898 174.52L32.5977 174.766L32.6016 175.012C32.604 175.129 32.6222 175.243 32.6562 175.352L32.7305 175.582L32.8008 175.816C32.816 175.864 32.8406 175.897 32.8828 175.926L33.082 176.062L33.2852 176.203C33.3595 176.254 33.4376 176.287 33.5195 176.301L33.9883 176.379C34.0684 176.392 34.1462 176.391 34.2266 176.367L34.457 176.297L34.6875 176.23C34.7696 176.206 34.8496 176.166 34.9258 176.102L35.1172 175.938L35.3086 175.777C35.3466 175.745 35.3656 175.708 35.375 175.656L35.418 175.41L35.4609 175.172C35.44 175.119 35.4258 175.076 35.4219 175.055C35.4105 174.991 35.4072 174.923 35.4062 174.871V174.73L35.4023 174.594C35.4014 174.59 35.4005 174.585 35.3984 174.578C35.3895 174.55 35.3725 174.506 35.3438 174.449L35.1172 174.004C35.0829 173.936 35.0322 173.882 34.9609 173.836L34.75 173.695L34.5352 173.555C34.4841 173.521 34.4379 173.511 34.3828 173.516L34.1289 173.535Z" fill="#2D5F60"/>
<circle cx="150" cy="172" r="2" fill="#2D5F60"/>
<path d="M150.301 169.52C150.58 169.497 150.844 169.566 151.078 169.719L151.293 169.855L151.508 169.996C151.722 170.136 151.892 170.323 152.008 170.551L152.234 170.996C152.32 171.166 152.398 171.369 152.402 171.574L152.406 171.715V171.754C152.417 171.772 152.432 171.784 152.438 171.797C152.473 171.875 152.482 171.945 152.484 171.969C152.49 172.025 152.483 172.078 152.48 172.105C152.475 172.17 152.465 172.25 152.449 172.336L152.402 172.586L152.359 172.836C152.309 173.115 152.17 173.355 151.953 173.539L151.762 173.703L151.57 173.863C151.392 174.015 151.189 174.126 150.965 174.191L150.504 174.324C150.279 174.39 150.048 174.403 149.816 174.363L149.348 174.285C149.118 174.246 148.906 174.156 148.715 174.023L148.516 173.887L148.312 173.746C148.089 173.591 147.93 173.373 147.848 173.113L147.777 172.883L147.703 172.652C147.64 172.452 147.606 172.246 147.602 172.035L147.598 171.789L147.59 171.539C147.584 171.254 147.678 170.992 147.859 170.773L148.02 170.582L148.176 170.391C148.324 170.211 148.504 170.066 148.711 169.961L148.926 169.852L149.145 169.742C149.348 169.639 149.568 169.582 149.797 169.562L150.047 169.539L150.301 169.52ZM150.129 170.535L149.879 170.559C149.773 170.567 149.678 170.594 149.594 170.637L149.379 170.746L149.16 170.855C149.079 170.897 149.008 170.952 148.945 171.027L148.789 171.219L148.629 171.41C148.599 171.446 148.589 171.476 148.59 171.52L148.598 171.766L148.602 172.012C148.604 172.129 148.622 172.243 148.656 172.352L148.73 172.582L148.801 172.816C148.816 172.864 148.841 172.897 148.883 172.926L149.082 173.062L149.285 173.203C149.359 173.254 149.438 173.287 149.52 173.301L149.988 173.379C150.068 173.392 150.146 173.391 150.227 173.367L150.457 173.297L150.688 173.23C150.77 173.206 150.85 173.166 150.926 173.102L151.117 172.938L151.309 172.777C151.347 172.745 151.366 172.708 151.375 172.656L151.418 172.41L151.461 172.172C151.44 172.119 151.426 172.076 151.422 172.055C151.41 171.991 151.407 171.923 151.406 171.871V171.73L151.402 171.594C151.401 171.59 151.4 171.585 151.398 171.578C151.389 171.55 151.373 171.506 151.344 171.449L151.117 171.004C151.083 170.936 151.032 170.882 150.961 170.836L150.75 170.695L150.535 170.555C150.484 170.521 150.438 170.511 150.383 170.516L150.129 170.535Z" fill="#2D5F60"/>
<circle cx="234" cy="170" r="2" fill="#2D5F60"/>
<path d="M234.301 167.52C234.58 167.497 234.844 167.566 235.078 167.719L235.293 167.855L235.508 167.996C235.722 168.136 235.892 168.323 236.008 168.551L236.234 168.996C236.32 169.166 236.398 169.369 236.402 169.574L236.406 169.715V169.754C236.417 169.772 236.432 169.784 236.438 169.797C236.473 169.875 236.482 169.945 236.484 169.969C236.49 170.025 236.483 170.078 236.48 170.105C236.475 170.17 236.465 170.25 236.449 170.336L236.402 170.586L236.359 170.836C236.309 171.115 236.17 171.355 235.953 171.539L235.762 171.703L235.57 171.863C235.392 172.015 235.189 172.126 234.965 172.191L234.504 172.324C234.279 172.39 234.048 172.403 233.816 172.363L233.348 172.285C233.118 172.246 232.906 172.156 232.715 172.023L232.516 171.887L232.312 171.746C232.089 171.591 231.93 171.373 231.848 171.113L231.777 170.883L231.703 170.652C231.64 170.452 231.606 170.246 231.602 170.035L231.598 169.789L231.59 169.539C231.584 169.254 231.678 168.992 231.859 168.773L232.02 168.582L232.176 168.391C232.324 168.211 232.504 168.066 232.711 167.961L232.926 167.852L233.145 167.742C233.348 167.639 233.568 167.582 233.797 167.562L234.047 167.539L234.301 167.52ZM234.129 168.535L233.879 168.559C233.773 168.567 233.678 168.594 233.594 168.637L233.379 168.746L233.16 168.855C233.079 168.897 233.008 168.952 232.945 169.027L232.789 169.219L232.629 169.41C232.599 169.446 232.589 169.476 232.59 169.52L232.598 169.766L232.602 170.012C232.604 170.129 232.622 170.243 232.656 170.352L232.73 170.582L232.801 170.816C232.816 170.864 232.841 170.897 232.883 170.926L233.082 171.062L233.285 171.203C233.359 171.254 233.438 171.287 233.52 171.301L233.988 171.379C234.068 171.392 234.146 171.391 234.227 171.367L234.457 171.297L234.688 171.23C234.77 171.206 234.85 171.166 234.926 171.102L235.117 170.938L235.309 170.777C235.347 170.745 235.366 170.708 235.375 170.656L235.418 170.41L235.461 170.172C235.44 170.119 235.426 170.076 235.422 170.055C235.41 169.991 235.407 169.923 235.406 169.871V169.73L235.402 169.594C235.401 169.59 235.4 169.585 235.398 169.578C235.389 169.55 235.373 169.506 235.344 169.449L235.117 169.004C235.083 168.936 235.032 168.882 234.961 168.836L234.75 168.695L234.535 168.555C234.484 168.521 234.438 168.511 234.383 168.516L234.129 168.535Z" fill="#2D5F60"/>
<circle cx="268" cy="194" r="2" fill="#2D5F60"/>
<path d="M268.301 191.52C268.58 191.497 268.844 191.566 269.078 191.719L269.293 191.855L269.508 191.996C269.722 192.136 269.892 192.323 270.008 192.551L270.234 192.996C270.32 193.166 270.398 193.369 270.402 193.574L270.406 193.715V193.754C270.417 193.772 270.432 193.784 270.438 193.797C270.473 193.875 270.482 193.945 270.484 193.969C270.49 194.025 270.483 194.078 270.48 194.105C270.475 194.17 270.465 194.25 270.449 194.336L270.402 194.586L270.359 194.836C270.309 195.115 270.17 195.355 269.953 195.539L269.762 195.703L269.57 195.863C269.392 196.015 269.189 196.126 268.965 196.191L268.504 196.324C268.279 196.39 268.048 196.403 267.816 196.363L267.348 196.285C267.118 196.246 266.906 196.156 266.715 196.023L266.516 195.887L266.312 195.746C266.089 195.591 265.93 195.373 265.848 195.113L265.777 194.883L265.703 194.652C265.64 194.452 265.606 194.246 265.602 194.035L265.598 193.789L265.59 193.539C265.584 193.254 265.678 192.992 265.859 192.773L266.02 192.582L266.176 192.391C266.324 192.211 266.504 192.066 266.711 191.961L266.926 191.852L267.145 191.742C267.348 191.639 267.568 191.582 267.797 191.562L268.047 191.539L268.301 191.52ZM268.129 192.535L267.879 192.559C267.773 192.567 267.678 192.594 267.594 192.637L267.379 192.746L267.16 192.855C267.079 192.897 267.008 192.952 266.945 193.027L266.789 193.219L266.629 193.41C266.599 193.446 266.589 193.476 266.59 193.52L266.598 193.766L266.602 194.012C266.604 194.129 266.622 194.243 266.656 194.352L266.73 194.582L266.801 194.816C266.816 194.864 266.841 194.897 266.883 194.926L267.082 195.062L267.285 195.203C267.359 195.254 267.438 195.287 267.52 195.301L267.988 195.379C268.068 195.392 268.146 195.391 268.227 195.367L268.457 195.297L268.688 195.23C268.77 195.206 268.85 195.166 268.926 195.102L269.117 194.938L269.309 194.777C269.347 194.745 269.366 194.708 269.375 194.656L269.418 194.41L269.461 194.172C269.44 194.119 269.426 194.076 269.422 194.055C269.41 193.991 269.407 193.923 269.406 193.871V193.73L269.402 193.594C269.401 193.59 269.4 193.585 269.398 193.578C269.389 193.55 269.373 193.506 269.344 193.449L269.117 193.004C269.083 192.936 269.032 192.882 268.961 192.836L268.75 192.695L268.535 192.555C268.484 192.521 268.438 192.511 268.383 192.516L268.129 192.535Z" fill="#2D5F60"/>
<circle cx="269" cy="285" r="2" fill="#2D5F60"/>
<path d="M269.301 282.52C269.58 282.497 269.844 282.566 270.078 282.719L270.293 282.855L270.508 282.996C270.722 283.136 270.892 283.323 271.008 283.551L271.234 283.996C271.32 284.166 271.398 284.369 271.402 284.574L271.406 284.715V284.754C271.417 284.772 271.432 284.784 271.438 284.797C271.473 284.875 271.482 284.945 271.484 284.969C271.49 285.025 271.483 285.078 271.48 285.105C271.475 285.17 271.465 285.25 271.449 285.336L271.402 285.586L271.359 285.836C271.309 286.115 271.17 286.355 270.953 286.539L270.762 286.703L270.57 286.863C270.392 287.015 270.189 287.126 269.965 287.191L269.504 287.324C269.279 287.39 269.048 287.403 268.816 287.363L268.348 287.285C268.118 287.246 267.906 287.156 267.715 287.023L267.516 286.887L267.312 286.746C267.089 286.591 266.93 286.373 266.848 286.113L266.777 285.883L266.703 285.652C266.64 285.452 266.606 285.246 266.602 285.035L266.598 284.789L266.59 284.539C266.584 284.254 266.678 283.992 266.859 283.773L267.02 283.582L267.176 283.391C267.324 283.211 267.504 283.066 267.711 282.961L267.926 282.852L268.145 282.742C268.348 282.639 268.568 282.582 268.797 282.562L269.047 282.539L269.301 282.52ZM269.129 283.535L268.879 283.559C268.773 283.567 268.678 283.594 268.594 283.637L268.379 283.746L268.16 283.855C268.079 283.897 268.008 283.952 267.945 284.027L267.789 284.219L267.629 284.41C267.599 284.446 267.589 284.476 267.59 284.52L267.598 284.766L267.602 285.012C267.604 285.129 267.622 285.243 267.656 285.352L267.73 285.582L267.801 285.816C267.816 285.864 267.841 285.897 267.883 285.926L268.082 286.062L268.285 286.203C268.359 286.254 268.438 286.287 268.52 286.301L268.988 286.379C269.068 286.392 269.146 286.391 269.227 286.367L269.457 286.297L269.688 286.23C269.77 286.206 269.85 286.166 269.926 286.102L270.117 285.938L270.309 285.777C270.347 285.745 270.366 285.708 270.375 285.656L270.418 285.41L270.461 285.172C270.44 285.119 270.426 285.076 270.422 285.055C270.41 284.991 270.407 284.923 270.406 284.871V284.73L270.402 284.594C270.401 284.59 270.4 284.585 270.398 284.578C270.389 284.55 270.373 284.506 270.344 284.449L270.117 284.004C270.083 283.936 270.032 283.882 269.961 283.836L269.75 283.695L269.535 283.555C269.484 283.521 269.438 283.511 269.383 283.516L269.129 283.535Z" fill="#2D5F60"/>
<circle cx="271" cy="376" r="2" fill="#2D5F60"/>
<path d="M271.301 373.52C271.58 373.497 271.844 373.566 272.078 373.719L272.293 373.855L272.508 373.996C272.722 374.136 272.892 374.323 273.008 374.551L273.234 374.996C273.32 375.166 273.398 375.369 273.402 375.574L273.406 375.715V375.754C273.417 375.772 273.432 375.784 273.438 375.797C273.473 375.875 273.482 375.945 273.484 375.969C273.49 376.025 273.483 376.078 273.48 376.105C273.475 376.17 273.465 376.25 273.449 376.336L273.402 376.586L273.359 376.836C273.309 377.115 273.17 377.355 272.953 377.539L272.762 377.703L272.57 377.863C272.392 378.015 272.189 378.126 271.965 378.191L271.504 378.324C271.279 378.39 271.048 378.403 270.816 378.363L270.348 378.285C270.118 378.246 269.906 378.156 269.715 378.023L269.516 377.887L269.312 377.746C269.089 377.591 268.93 377.373 268.848 377.113L268.777 376.883L268.703 376.652C268.64 376.452 268.606 376.246 268.602 376.035L268.598 375.789L268.59 375.539C268.584 375.254 268.678 374.992 268.859 374.773L269.02 374.582L269.176 374.391C269.324 374.211 269.504 374.066 269.711 373.961L269.926 373.852L270.145 373.742C270.348 373.639 270.568 373.582 270.797 373.562L271.047 373.539L271.301 373.52ZM271.129 374.535L270.879 374.559C270.773 374.567 270.678 374.594 270.594 374.637L270.379 374.746L270.16 374.855C270.079 374.897 270.008 374.952 269.945 375.027L269.789 375.219L269.629 375.41C269.599 375.446 269.589 375.476 269.59 375.52L269.598 375.766L269.602 376.012C269.604 376.129 269.622 376.243 269.656 376.352L269.73 376.582L269.801 376.816C269.816 376.864 269.841 376.897 269.883 376.926L270.082 377.062L270.285 377.203C270.359 377.254 270.438 377.287 270.52 377.301L270.988 377.379C271.068 377.392 271.146 377.391 271.227 377.367L271.457 377.297L271.688 377.23C271.77 377.206 271.85 377.166 271.926 377.102L272.117 376.938L272.309 376.777C272.347 376.745 272.366 376.708 272.375 376.656L272.418 376.41L272.461 376.172C272.44 376.119 272.426 376.076 272.422 376.055C272.41 375.991 272.407 375.923 272.406 375.871V375.73L272.402 375.594C272.401 375.59 272.4 375.585 272.398 375.578C272.389 375.55 272.373 375.506 272.344 375.449L272.117 375.004C272.083 374.936 272.032 374.882 271.961 374.836L271.75 374.695L271.535 374.555C271.484 374.521 271.438 374.511 271.383 374.516L271.129 374.535Z" fill="#2D5F60"/>
<circle cx="272" cy="471" r="2" fill="#2D5F60"/>
<path d="M272.301 468.52C272.58 468.497 272.844 468.566 273.078 468.719L273.293 468.855L273.508 468.996C273.722 469.136 273.892 469.323 274.008 469.551L274.234 469.996C274.32 470.166 274.398 470.369 274.402 470.574L274.406 470.715V470.754C274.417 470.772 274.432 470.784 274.438 470.797C274.473 470.875 274.482 470.945 274.484 470.969C274.49 471.025 274.483 471.078 274.48 471.105C274.475 471.17 274.465 471.25 274.449 471.336L274.402 471.586L274.359 471.836C274.309 472.115 274.17 472.355 273.953 472.539L273.762 472.703L273.57 472.863C273.392 473.015 273.189 473.126 272.965 473.191L272.504 473.324C272.279 473.39 272.048 473.403 271.816 473.363L271.348 473.285C271.118 473.246 270.906 473.156 270.715 473.023L270.516 472.887L270.312 472.746C270.089 472.591 269.93 472.373 269.848 472.113L269.777 471.883L269.703 471.652C269.64 471.452 269.606 471.246 269.602 471.035L269.598 470.789L269.59 470.539C269.584 470.254 269.678 469.992 269.859 469.773L270.02 469.582L270.176 469.391C270.324 469.211 270.504 469.066 270.711 468.961L270.926 468.852L271.145 468.742C271.348 468.639 271.568 468.582 271.797 468.562L272.047 468.539L272.301 468.52ZM272.129 469.535L271.879 469.559C271.773 469.567 271.678 469.594 271.594 469.637L271.379 469.746L271.16 469.855C271.079 469.897 271.008 469.952 270.945 470.027L270.789 470.219L270.629 470.41C270.599 470.446 270.589 470.476 270.59 470.52L270.598 470.766L270.602 471.012C270.604 471.129 270.622 471.243 270.656 471.352L270.73 471.582L270.801 471.816C270.816 471.864 270.841 471.897 270.883 471.926L271.082 472.062L271.285 472.203C271.359 472.254 271.438 472.287 271.52 472.301L271.988 472.379C272.068 472.392 272.146 472.391 272.227 472.367L272.457 472.297L272.688 472.23C272.77 472.206 272.85 472.166 272.926 472.102L273.117 471.938L273.309 471.777C273.347 471.745 273.366 471.708 273.375 471.656L273.418 471.41L273.461 471.172C273.44 471.119 273.426 471.076 273.422 471.055C273.41 470.991 273.407 470.923 273.406 470.871V470.73L273.402 470.594C273.401 470.59 273.4 470.585 273.398 470.578C273.389 470.55 273.373 470.506 273.344 470.449L273.117 470.004C273.083 469.936 273.032 469.882 272.961 469.836L272.75 469.695L272.535 469.555C272.484 469.521 272.438 469.511 272.383 469.516L272.129 469.535Z" fill="#2D5F60"/>
<circle cx="190" cy="510" r="2" fill="#2D5F60"/>
<path d="M190.301 507.52C190.58 507.497 190.844 507.566 191.078 507.719L191.293 507.855L191.508 507.996C191.722 508.136 191.892 508.323 192.008 508.551L192.234 508.996C192.32 509.166 192.398 509.369 192.402 509.574L192.406 509.715V509.754C192.417 509.772 192.432 509.784 192.438 509.797C192.473 509.875 192.482 509.945 192.484 509.969C192.49 510.025 192.483 510.078 192.48 510.105C192.475 510.17 192.465 510.25 192.449 510.336L192.402 510.586L192.359 510.836C192.309 511.115 192.17 511.355 191.953 511.539L191.762 511.703L191.57 511.863C191.392 512.015 191.189 512.126 190.965 512.191L190.504 512.324C190.279 512.39 190.048 512.403 189.816 512.363L189.348 512.285C189.118 512.246 188.906 512.156 188.715 512.023L188.516 511.887L188.312 511.746C188.089 511.591 187.93 511.373 187.848 511.113L187.777 510.883L187.703 510.652C187.64 510.452 187.606 510.246 187.602 510.035L187.598 509.789L187.59 509.539C187.584 509.254 187.678 508.992 187.859 508.773L188.02 508.582L188.176 508.391C188.324 508.211 188.504 508.066 188.711 507.961L188.926 507.852L189.145 507.742C189.348 507.639 189.568 507.582 189.797 507.562L190.047 507.539L190.301 507.52ZM190.129 508.535L189.879 508.559C189.773 508.567 189.678 508.594 189.594 508.637L189.379 508.746L189.16 508.855C189.079 508.897 189.008 508.952 188.945 509.027L188.789 509.219L188.629 509.41C188.599 509.446 188.589 509.476 188.59 509.52L188.598 509.766L188.602 510.012C188.604 510.129 188.622 510.243 188.656 510.352L188.73 510.582L188.801 510.816C188.816 510.864 188.841 510.897 188.883 510.926L189.082 511.062L189.285 511.203C189.359 511.254 189.438 511.287 189.52 511.301L189.988 511.379C190.068 511.392 190.146 511.391 190.227 511.367L190.457 511.297L190.688 511.23C190.77 511.206 190.85 511.166 190.926 511.102L191.117 510.938L191.309 510.777C191.347 510.745 191.366 510.708 191.375 510.656L191.418 510.41L191.461 510.172C191.44 510.119 191.426 510.076 191.422 510.055C191.41 509.991 191.407 509.923 191.406 509.871V509.73L191.402 509.594C191.401 509.59 191.4 509.585 191.398 509.578C191.389 509.55 191.373 509.506 191.344 509.449L191.117 509.004C191.083 508.936 191.032 508.882 190.961 508.836L190.75 508.695L190.535 508.555C190.484 508.521 190.438 508.511 190.383 508.516L190.129 508.535Z" fill="#2D5F60"/>
<circle cx="228" cy="616" r="2" fill="#2D5F60"/>
<path d="M228.301 613.52C228.58 613.497 228.844 613.566 229.078 613.719L229.293 613.855L229.508 613.996C229.722 614.136 229.892 614.323 230.008 614.551L230.234 614.996C230.32 615.166 230.398 615.369 230.402 615.574L230.406 615.715V615.754C230.417 615.772 230.432 615.784 230.438 615.797C230.473 615.875 230.482 615.945 230.484 615.969C230.49 616.025 230.483 616.078 230.48 616.105C230.475 616.17 230.465 616.25 230.449 616.336L230.402 616.586L230.359 616.836C230.309 617.115 230.17 617.355 229.953 617.539L229.762 617.703L229.57 617.863C229.392 618.015 229.189 618.126 228.965 618.191L228.504 618.324C228.279 618.39 228.048 618.403 227.816 618.363L227.348 618.285C227.118 618.246 226.906 618.156 226.715 618.023L226.516 617.887L226.312 617.746C226.089 617.591 225.93 617.373 225.848 617.113L225.777 616.883L225.703 616.652C225.64 616.452 225.606 616.246 225.602 616.035L225.598 615.789L225.59 615.539C225.584 615.254 225.678 614.992 225.859 614.773L226.02 614.582L226.176 614.391C226.324 614.211 226.504 614.066 226.711 613.961L226.926 613.852L227.145 613.742C227.348 613.639 227.568 613.582 227.797 613.562L228.047 613.539L228.301 613.52ZM228.129 614.535L227.879 614.559C227.773 614.567 227.678 614.594 227.594 614.637L227.379 614.746L227.16 614.855C227.079 614.897 227.008 614.952 226.945 615.027L226.789 615.219L226.629 615.41C226.599 615.446 226.589 615.476 226.59 615.52L226.598 615.766L226.602 616.012C226.604 616.129 226.622 616.243 226.656 616.352L226.73 616.582L226.801 616.816C226.816 616.864 226.841 616.897 226.883 616.926L227.082 617.062L227.285 617.203C227.359 617.254 227.438 617.287 227.52 617.301L227.988 617.379C228.068 617.392 228.146 617.391 228.227 617.367L228.457 617.297L228.688 617.23C228.77 617.206 228.85 617.166 228.926 617.102L229.117 616.938L229.309 616.777C229.347 616.745 229.366 616.708 229.375 616.656L229.418 616.41L229.461 616.172C229.44 616.119 229.426 616.076 229.422 616.055C229.41 615.991 229.407 615.923 229.406 615.871V615.73L229.402 615.594C229.401 615.59 229.4 615.585 229.398 615.578C229.389 615.55 229.373 615.506 229.344 615.449L229.117 615.004C229.083 614.936 229.032 614.882 228.961 614.836L228.75 614.695L228.535 614.555C228.484 614.521 228.438 614.511 228.383 614.516L228.129 614.535Z" fill="#2D5F60"/>
<circle cx="226" cy="514" r="2" fill="#2D5F60"/>
<path d="M226.301 511.52C226.58 511.497 226.844 511.566 227.078 511.719L227.293 511.855L227.508 511.996C227.722 512.136 227.892 512.323 228.008 512.551L228.234 512.996C228.32 513.166 228.398 513.369 228.402 513.574L228.406 513.715V513.754C228.417 513.772 228.432 513.784 228.438 513.797C228.473 513.875 228.482 513.945 228.484 513.969C228.49 514.025 228.483 514.078 228.48 514.105C228.475 514.17 228.465 514.25 228.449 514.336L228.402 514.586L228.359 514.836C228.309 515.115 228.17 515.355 227.953 515.539L227.762 515.703L227.57 515.863C227.392 516.015 227.189 516.126 226.965 516.191L226.504 516.324C226.279 516.39 226.048 516.403 225.816 516.363L225.348 516.285C225.118 516.246 224.906 516.156 224.715 516.023L224.516 515.887L224.312 515.746C224.089 515.591 223.93 515.373 223.848 515.113L223.777 514.883L223.703 514.652C223.64 514.452 223.606 514.246 223.602 514.035L223.598 513.789L223.59 513.539C223.584 513.254 223.678 512.992 223.859 512.773L224.02 512.582L224.176 512.391C224.324 512.211 224.504 512.066 224.711 511.961L224.926 511.852L225.145 511.742C225.348 511.639 225.568 511.582 225.797 511.562L226.047 511.539L226.301 511.52ZM226.129 512.535L225.879 512.559C225.773 512.567 225.678 512.594 225.594 512.637L225.379 512.746L225.16 512.855C225.079 512.897 225.008 512.952 224.945 513.027L224.789 513.219L224.629 513.41C224.599 513.446 224.589 513.476 224.59 513.52L224.598 513.766L224.602 514.012C224.604 514.129 224.622 514.243 224.656 514.352L224.73 514.582L224.801 514.816C224.816 514.864 224.841 514.897 224.883 514.926L225.082 515.062L225.285 515.203C225.359 515.254 225.438 515.287 225.52 515.301L225.988 515.379C226.068 515.392 226.146 515.391 226.227 515.367L226.457 515.297L226.688 515.23C226.77 515.206 226.85 515.166 226.926 515.102L227.117 514.938L227.309 514.777C227.347 514.745 227.366 514.708 227.375 514.656L227.418 514.41L227.461 514.172C227.44 514.119 227.426 514.076 227.422 514.055C227.41 513.991 227.407 513.923 227.406 513.871V513.73L227.402 513.594C227.401 513.59 227.4 513.585 227.398 513.578C227.389 513.55 227.373 513.506 227.344 513.449L227.117 513.004C227.083 512.936 227.032 512.882 226.961 512.836L226.75 512.695L226.535 512.555C226.484 512.521 226.438 512.511 226.383 512.516L226.129 512.535Z" fill="#2D5F60"/>
<circle cx="111" cy="515" r="2" fill="#2D5F60"/>
<path d="M111.301 512.52C111.58 512.497 111.844 512.566 112.078 512.719L112.293 512.855L112.508 512.996C112.722 513.136 112.892 513.323 113.008 513.551L113.234 513.996C113.32 514.166 113.398 514.369 113.402 514.574L113.406 514.715V514.754C113.417 514.772 113.432 514.784 113.438 514.797C113.473 514.875 113.482 514.945 113.484 514.969C113.49 515.025 113.483 515.078 113.48 515.105C113.475 515.17 113.465 515.25 113.449 515.336L113.402 515.586L113.359 515.836C113.309 516.115 113.17 516.355 112.953 516.539L112.762 516.703L112.57 516.863C112.392 517.015 112.189 517.126 111.965 517.191L111.504 517.324C111.279 517.39 111.048 517.403 110.816 517.363L110.348 517.285C110.118 517.246 109.906 517.156 109.715 517.023L109.516 516.887L109.312 516.746C109.089 516.591 108.93 516.373 108.848 516.113L108.777 515.883L108.703 515.652C108.64 515.452 108.606 515.246 108.602 515.035L108.598 514.789L108.59 514.539C108.584 514.254 108.678 513.992 108.859 513.773L109.02 513.582L109.176 513.391C109.324 513.211 109.504 513.066 109.711 512.961L109.926 512.852L110.145 512.742C110.348 512.639 110.568 512.582 110.797 512.562L111.047 512.539L111.301 512.52ZM111.129 513.535L110.879 513.559C110.773 513.567 110.678 513.594 110.594 513.637L110.379 513.746L110.16 513.855C110.079 513.897 110.008 513.952 109.945 514.027L109.789 514.219L109.629 514.41C109.599 514.446 109.589 514.476 109.59 514.52L109.598 514.766L109.602 515.012C109.604 515.129 109.622 515.243 109.656 515.352L109.73 515.582L109.801 515.816C109.816 515.864 109.841 515.897 109.883 515.926L110.082 516.062L110.285 516.203C110.359 516.254 110.438 516.287 110.52 516.301L110.988 516.379C111.068 516.392 111.146 516.391 111.227 516.367L111.457 516.297L111.688 516.23C111.77 516.206 111.85 516.166 111.926 516.102L112.117 515.938L112.309 515.777C112.347 515.745 112.366 515.708 112.375 515.656L112.418 515.41L112.461 515.172C112.44 515.119 112.426 515.076 112.422 515.055C112.41 514.991 112.407 514.923 112.406 514.871V514.73L112.402 514.594C112.401 514.59 112.4 514.585 112.398 514.578C112.389 514.55 112.373 514.506 112.344 514.449L112.117 514.004C112.083 513.936 112.032 513.882 111.961 513.836L111.75 513.695L111.535 513.555C111.484 513.521 111.438 513.511 111.383 513.516L111.129 513.535Z" fill="#2D5F60"/>
<circle cx="25" cy="519" r="2" fill="#2D5F60"/>
<path d="M25.3008 516.52C25.5801 516.497 25.844 516.566 26.0781 516.719L26.293 516.855L26.5078 516.996C26.7219 517.136 26.892 517.323 27.0078 517.551L27.2344 517.996C27.3201 518.166 27.3983 518.369 27.4023 518.574L27.4062 518.715V518.754C27.4172 518.772 27.4318 518.784 27.4375 518.797C27.4727 518.875 27.4822 518.945 27.4844 518.969C27.4895 519.025 27.4829 519.078 27.4805 519.105C27.4748 519.17 27.4645 519.25 27.4492 519.336L27.4023 519.586L27.3594 519.836C27.3091 520.115 27.1697 520.355 26.9531 520.539L26.7617 520.703L26.5703 520.863C26.3918 521.015 26.1888 521.126 25.9648 521.191L25.5039 521.324C25.2787 521.39 25.0476 521.403 24.8164 521.363L24.3477 521.285C24.1183 521.246 23.9064 521.156 23.7148 521.023L23.5156 520.887L23.3125 520.746C23.0887 520.591 22.9296 520.373 22.8477 520.113L22.7773 519.883L22.7031 519.652C22.6402 519.452 22.606 519.246 22.6016 519.035L22.5977 518.789L22.5898 518.539C22.5843 518.254 22.6783 517.992 22.8594 517.773L23.0195 517.582L23.1758 517.391C23.3241 517.211 23.5038 517.066 23.7109 516.961L23.9258 516.852L24.1445 516.742C24.3482 516.639 24.5681 516.582 24.7969 516.562L25.0469 516.539L25.3008 516.52ZM25.1289 517.535L24.8789 517.559C24.7726 517.567 24.6782 517.594 24.5938 517.637L24.3789 517.746L24.1602 517.855C24.0794 517.897 24.0077 517.952 23.9453 518.027L23.7891 518.219L23.6289 518.41C23.5994 518.446 23.589 518.476 23.5898 518.52L23.5977 518.766L23.6016 519.012C23.604 519.129 23.6222 519.243 23.6562 519.352L23.7305 519.582L23.8008 519.816C23.816 519.864 23.8406 519.897 23.8828 519.926L24.082 520.062L24.2852 520.203C24.3595 520.254 24.4376 520.287 24.5195 520.301L24.9883 520.379C25.0684 520.392 25.1462 520.391 25.2266 520.367L25.457 520.297L25.6875 520.23C25.7696 520.206 25.8496 520.166 25.9258 520.102L26.1172 519.938L26.3086 519.777C26.3466 519.745 26.3656 519.708 26.375 519.656L26.418 519.41L26.4609 519.172C26.44 519.119 26.4258 519.076 26.4219 519.055C26.4105 518.991 26.4072 518.923 26.4062 518.871V518.73L26.4023 518.594C26.4014 518.59 26.4005 518.585 26.3984 518.578C26.3895 518.55 26.3725 518.506 26.3438 518.449L26.1172 518.004C26.0829 517.936 26.0322 517.882 25.9609 517.836L25.75 517.695L25.5352 517.555C25.4841 517.521 25.4379 517.511 25.3828 517.516L25.1289 517.535Z" fill="#2D5F60"/>
<circle cx="265" cy="111" r="2" fill="#2D5F60"/>
<path d="M265.301 108.52C265.58 108.497 265.844 108.566 266.078 108.719L266.293 108.855L266.508 108.996C266.722 109.136 266.892 109.323 267.008 109.551L267.234 109.996C267.32 110.166 267.398 110.369 267.402 110.574L267.406 110.715V110.754C267.417 110.772 267.432 110.784 267.438 110.797C267.473 110.875 267.482 110.945 267.484 110.969C267.49 111.025 267.483 111.078 267.48 111.105C267.475 111.17 267.465 111.25 267.449 111.336L267.402 111.586L267.359 111.836C267.309 112.115 267.17 112.355 266.953 112.539L266.762 112.703L266.57 112.863C266.392 113.015 266.189 113.126 265.965 113.191L265.504 113.324C265.279 113.39 265.048 113.403 264.816 113.363L264.348 113.285C264.118 113.246 263.906 113.156 263.715 113.023L263.516 112.887L263.312 112.746C263.089 112.591 262.93 112.373 262.848 112.113L262.777 111.883L262.703 111.652C262.64 111.452 262.606 111.246 262.602 111.035L262.598 110.789L262.59 110.539C262.584 110.254 262.678 109.992 262.859 109.773L263.02 109.582L263.176 109.391C263.324 109.211 263.504 109.066 263.711 108.961L263.926 108.852L264.145 108.742C264.348 108.639 264.568 108.582 264.797 108.562L265.047 108.539L265.301 108.52ZM265.129 109.535L264.879 109.559C264.773 109.567 264.678 109.594 264.594 109.637L264.379 109.746L264.16 109.855C264.079 109.897 264.008 109.952 263.945 110.027L263.789 110.219L263.629 110.41C263.599 110.446 263.589 110.476 263.59 110.52L263.598 110.766L263.602 111.012C263.604 111.129 263.622 111.243 263.656 111.352L263.73 111.582L263.801 111.816C263.816 111.864 263.841 111.897 263.883 111.926L264.082 112.062L264.285 112.203C264.359 112.254 264.438 112.287 264.52 112.301L264.988 112.379C265.068 112.392 265.146 112.391 265.227 112.367L265.457 112.297L265.688 112.23C265.77 112.206 265.85 112.166 265.926 112.102L266.117 111.938L266.309 111.777C266.347 111.745 266.366 111.708 266.375 111.656L266.418 111.41L266.461 111.172C266.44 111.119 266.426 111.076 266.422 111.055C266.41 110.991 266.407 110.923 266.406 110.871V110.73L266.402 110.594C266.401 110.59 266.4 110.585 266.398 110.578C266.389 110.55 266.373 110.506 266.344 110.449L266.117 110.004C266.083 109.936 266.032 109.882 265.961 109.836L265.75 109.695L265.535 109.555C265.484 109.521 265.438 109.511 265.383 109.516L265.129 109.535Z" fill="#2D5F60"/>
<circle cx="286" cy="74" r="2" fill="#2D5F60"/>
<path d="M286.301 71.5195C286.58 71.4966 286.844 71.5663 287.078 71.7188L287.293 71.8555L287.508 71.9961C287.722 72.1356 287.892 72.3225 288.008 72.5508L288.234 72.9961C288.32 73.1657 288.398 73.3688 288.402 73.5742L288.406 73.7148V73.7539C288.417 73.7722 288.432 73.7845 288.438 73.7969C288.473 73.8748 288.482 73.9449 288.484 73.9688C288.49 74.025 288.483 74.078 288.48 74.1055C288.475 74.1696 288.465 74.2505 288.449 74.3359L288.402 74.5859L288.359 74.8359C288.309 75.1148 288.17 75.3554 287.953 75.5391L287.762 75.7031L287.57 75.8633C287.392 76.0147 287.189 76.1262 286.965 76.1914L286.504 76.3242C286.279 76.3896 286.048 76.403 285.816 76.3633L285.348 76.2852C285.118 76.2456 284.906 76.1561 284.715 76.0234L284.516 75.8867L284.312 75.7461C284.089 75.5906 283.93 75.3735 283.848 75.1133L283.777 74.8828L283.703 74.6523C283.64 74.4523 283.606 74.2459 283.602 74.0352L283.598 73.7891L283.59 73.5391C283.584 73.2545 283.678 72.9923 283.859 72.7734L284.02 72.582L284.176 72.3906C284.324 72.2114 284.504 72.0657 284.711 71.9609L284.926 71.8516L285.145 71.7422C285.348 71.6394 285.568 71.5816 285.797 71.5625L286.047 71.5391L286.301 71.5195ZM286.129 72.5352L285.879 72.5586C285.773 72.5674 285.678 72.594 285.594 72.6367L285.379 72.7461L285.16 72.8555C285.079 72.8966 285.008 72.952 284.945 73.0273L284.789 73.2188L284.629 73.4102C284.599 73.4458 284.589 73.4761 284.59 73.5195L284.598 73.7656L284.602 74.0117C284.604 74.1294 284.622 74.2433 284.656 74.3516L284.73 74.582L284.801 74.8164C284.816 74.8642 284.841 74.8965 284.883 74.9258L285.082 75.0625L285.285 75.2031C285.359 75.2543 285.438 75.2867 285.52 75.3008L285.988 75.3789C286.068 75.3924 286.146 75.3906 286.227 75.3672L286.457 75.2969L286.688 75.2305C286.77 75.2063 286.85 75.1662 286.926 75.1016L287.117 74.9375L287.309 74.7773C287.347 74.7449 287.366 74.7084 287.375 74.6562L287.418 74.4102L287.461 74.1719C287.44 74.1195 287.426 74.0765 287.422 74.0547C287.41 73.9912 287.407 73.9235 287.406 73.8711V73.7305L287.402 73.5938C287.401 73.5899 287.4 73.5845 287.398 73.5781C287.389 73.55 287.373 73.5063 287.344 73.4492L287.117 73.0039C287.083 72.9361 287.032 72.8824 286.961 72.8359L286.75 72.6953L286.535 72.5547C286.484 72.5214 286.438 72.5112 286.383 72.5156L286.129 72.5352Z" fill="#2D5F60"/>
</g>
<defs>
<clipPath id="clip0_100_198">
<rect width="384" height="694" fill="white"/>
</clipPath>
</defs>
</svg>
