<svg width="26" height="27" viewBox="0 0 26 27" fill="none" xmlns="http://www.w3.org/2000/svg">
<path fill-rule="evenodd" clip-rule="evenodd" d="M0.500002 1.09342C0.924484 0.670356 1.61271 0.670356 2.03719 1.09342L2.5653 1.61977C3.10681 2.15948 3.44046 2.87192 3.50777 3.63222L3.63855 5.10946H24.0947C24.4111 5.10946 24.7118 5.24688 24.9183 5.48585C25.1248 5.72482 25.2165 6.04161 25.1696 6.35349L23.8169 15.3416C23.5775 16.9325 22.2062 18.1095 20.5921 18.1095H4.78944L4.89378 19.288C4.94329 19.8472 5.41325 20.2761 5.97653 20.2761H19.7469C21.5478 20.2761 23.0077 21.7312 23.0077 23.5261C23.0077 25.321 21.5478 26.7761 19.7469 26.7761C17.9459 26.7761 16.486 25.321 16.486 23.5261C16.486 23.1463 16.5514 22.7816 16.6715 22.4428H8.69174C8.8119 22.7816 8.87729 23.1463 8.87729 23.5261C8.87729 25.321 7.41735 26.7761 5.61642 26.7761C3.8155 26.7761 2.35555 25.321 2.35555 23.5261C2.35555 22.5936 2.74958 21.7529 3.38075 21.1602C3.01922 20.687 2.78424 20.1105 2.72828 19.4784L1.34227 3.82265C1.31983 3.56922 1.20861 3.33174 1.02811 3.15184L0.500002 2.62549C0.0755201 2.20242 0.0755201 1.51649 0.500002 1.09342ZM19.7469 22.4428C19.1465 22.4428 18.6599 22.9278 18.6599 23.5261C18.6599 24.1244 19.1465 24.6095 19.7469 24.6095C20.3472 24.6095 20.8338 24.1244 20.8338 23.5261C20.8338 22.9278 20.3472 22.4428 19.7469 22.4428ZM5.61642 22.4428C5.01611 22.4428 4.52947 22.9278 4.52947 23.5261C4.52947 24.1244 5.01611 24.6095 5.61642 24.6095C6.21673 24.6095 6.70338 24.1244 6.70338 23.5261C6.70338 22.9278 6.21673 22.4428 5.61642 22.4428Z" fill="#D9D9D9"/>
</svg>
