<svg width="79" height="77" viewBox="0 0 79 77" fill="none" xmlns="http://www.w3.org/2000/svg">
<path d="M43.0736 2.22089C42.4484 2.93436 41.2871 4.76263 40.4832 6.36794L39.054 9.22183L37.6248 7.48274C32.8905 1.41824 30.2107 0.838539 25.6551 4.9856C23.8686 6.6355 22.2161 7.57193 19.045 8.77591C11.2737 11.7636 5.78015 16.4011 2.65375 22.6886C1.2692 25.5425 1.00122 26.5235 1.00122 29.0207C0.956562 33.1231 2.1178 35.0852 7.12004 39.2768C9.26385 41.1051 11.363 43.2009 11.765 43.959C12.3009 44.94 12.6136 46.9466 12.7922 50.6032C13.0155 55.5975 13.1049 55.9096 14.2661 57.069C16.1419 58.9865 18.5984 58.7635 22.5734 56.3555C26.8164 53.7692 27.2183 53.903 27.6203 58.0946C28.7369 69.2872 29.6748 72.587 32.2206 74.1477C35.0343 75.8868 39.2773 74.9058 42.627 71.7398C44.9941 69.5548 45.8874 67.3252 46.468 62.3309C46.736 59.8337 47.2273 57.4257 47.5846 57.0244C48.3439 56.1326 48.9245 56.2664 54.1054 58.6743C60.2688 61.5282 65.673 61.5282 69.0674 58.6743C70.9433 57.1136 70.9433 54.3935 69.0228 51.2275C67.2809 48.4182 67.2363 47.0804 68.8888 45.6981C76.3475 39.4998 78 37.2702 78 33.3907C78 31.5624 77.7767 31.0273 76.4815 29.7341C74.427 27.6829 72.8638 27.7275 66.5663 30.2246C61.0728 32.4097 59.6882 32.6326 59.6882 31.4732C59.6882 31.0719 61.9214 27.4599 64.6011 23.4467C70.5413 14.7066 71.2559 13.2351 71.3006 9.80153C71.3006 7.52734 71.1219 7.03683 70.0053 5.87743C68.4868 4.36131 66.7003 4.18294 64.3332 5.29774C63.5292 5.69907 60.7155 8.32999 58.0804 11.0947C51.6043 18.0064 50.8896 17.8727 50.8003 9.71234C50.711 5.34233 49.7731 2.35467 48.1652 1.50742C46.468 0.615578 44.3242 0.927727 43.0736 2.22089Z" fill="#E69F97"/>
<path d="M42.4803 3.02602L41.6753 2.43279L42.4803 3.02602ZM41.3881 4.69867L42.255 5.19723L41.3881 4.69867ZM40.3927 6.43608L41.2612 6.93174L40.3927 6.43608ZM39.5005 8.22615L38.5819 7.83102L39.5005 8.22615ZM38.4952 8.42816L37.7328 9.07523L38.4952 8.42816ZM34.5915 3.92516L35.242 3.16569L34.5915 3.92516ZM29.086 2.80997L28.6131 1.92883L29.086 2.80997ZM25.768 4.97205L26.3904 5.75473L25.768 4.97205ZM24.1884 6.2013L23.5826 5.40574L24.1884 6.2013ZM22.5325 7.33507L22.0097 6.48263L22.5325 7.33507ZM16.951 9.55664L16.5752 8.62995L16.951 9.55664ZM13.4721 11.5296L13.9784 12.392L13.4721 11.5296ZM10.0619 13.617L9.3866 12.8794L10.0619 13.617ZM8.64734 15.04L7.90559 14.3694L8.64734 15.04ZM5.82877 17.8719L6.48135 18.6296L5.82877 17.8719ZM4.61453 19.4406L3.71723 18.9992L4.61453 19.4406ZM3.64914 21.196L4.50205 21.718L3.64914 21.196ZM2.61428 22.9034L3.47171 23.418L2.61428 22.9034ZM1.67517 24.6776L2.58272 25.0976L1.67517 24.6776ZM1.2431 30.5844L0.244897 30.6444L1.2431 30.5844ZM2.31202 34.351L1.48477 34.9128L2.31202 34.351ZM5.05183 37.2367L4.39529 37.991L5.05183 37.2367ZM6.48338 38.6325L5.74634 39.3083L6.48338 38.6325ZM9.49562 41.2717L10.1913 40.5534L9.49562 41.2717ZM10.7988 42.788L9.98416 43.368L10.7988 42.788ZM12.7022 48.3218L13.7017 48.3525L12.7022 48.3218ZM13.0783 54.3256L12.0797 54.2731L13.0783 54.3256ZM22.3516 56.3717L22.9135 57.1989L22.3516 56.3717ZM24.0574 55.3072L24.5538 56.1753L24.0574 55.3072ZM27.1632 55.7997L26.1742 55.9478L27.1632 55.7997ZM27.7135 59.789L26.719 59.8937L27.7135 59.789ZM28.2813 63.7489L29.2797 63.6922L28.2813 63.7489ZM28.5194 65.736L27.5359 65.917L28.5194 65.736ZM29.9966 71.5499L29.0617 71.9047L29.9966 71.5499ZM34.6062 74.9509L34.8111 73.9721L34.6062 74.9509ZM38.4952 74.3628L38.9343 75.2612L38.4952 74.3628ZM41.9279 72.3508L41.2166 71.648L41.9279 72.3508ZM45.781 65.6003L46.7599 65.8045L45.781 65.6003ZM46.268 63.6608L45.3085 63.3791L46.268 63.6608ZM46.546 61.6817L45.5461 61.6879L46.546 61.6817ZM47.3767 57.8221L48.2871 58.236L47.3767 57.8221ZM50.4634 57.2526L50.8229 56.3194L50.4634 57.2526ZM54.159 58.7654L53.7166 59.6621L54.159 58.7654ZM57.9031 60.1806L57.7155 61.1628L57.9031 60.1806ZM67.6609 59.5735L67.9721 60.5238L67.6609 59.5735ZM69.3096 58.4991L68.5668 57.8296L69.3096 58.4991ZM70.2542 56.7677L71.2201 57.0268L70.2542 56.7677ZM70.3377 54.8125L71.3217 54.6346L70.3377 54.8125ZM69.7623 52.9218L68.8462 53.3229L69.7623 52.9218ZM68.8377 51.1613L69.6882 50.6354L68.8377 51.1613ZM71.8177 43.0947L71.2508 42.2709L71.8177 43.0947ZM73.37 41.8328L74.0609 42.5557L73.37 41.8328ZM76.1428 38.9479L75.31 38.3943L76.1428 38.9479ZM77.044 37.1724L77.9829 37.5163L77.044 37.1724ZM77.964 33.3356L78.9584 33.4417L77.964 33.3356ZM77.6624 31.414L78.5766 31.0086L77.6624 31.414ZM74.9116 28.6318L75.3744 27.7453L74.9116 28.6318ZM73.0085 28.2838L72.8894 27.291L73.0085 28.2838ZM71.068 28.763L71.4261 29.6967L71.068 28.763ZM69.1385 29.3019L69.317 30.2859L69.1385 29.3019ZM65.3822 30.6704L65.1062 29.7093L65.3822 30.6704ZM60.3138 31.6162L61.2224 31.1986L60.3138 31.6162ZM60.4079 30.004L61.3189 30.4164L60.4079 30.004ZM61.4432 28.2967L62.2302 28.9137L61.4432 28.2967ZM65.8572 21.6157L65.039 21.0409L65.8572 21.6157ZM66.9451 19.9386L67.8036 20.4514L66.9451 19.9386ZM71.0217 11.0021L72.015 11.1176L71.0217 11.0021ZM71.2401 9.0195L72.2347 9.12324L71.2401 9.0195ZM69.5221 5.70408L68.8486 6.44332L69.5221 5.70408ZM65.9321 4.8484L66.1687 5.82L65.9321 4.8484ZM64.1144 5.57676L64.6141 6.44296L64.1144 5.57676ZM62.5417 6.77008L61.843 6.05464L62.5417 6.77008ZM61.0775 8.13329L60.4137 7.38537L61.0775 8.13329ZM59.6816 9.56304L60.4451 10.2088L59.6816 9.56304ZM56.792 12.3375L57.4461 13.0938L56.792 12.3375ZM51.1792 14.564L50.2401 14.9074L51.1792 14.564ZM50.8835 12.6246L49.8846 12.5795L50.8835 12.6246ZM43.1378 2.03602L42.1931 1.70815L43.1378 2.03602ZM42.4803 3.02602L43.2854 3.61925C42.9122 4.12561 42.5688 4.65155 42.255 5.19723L41.3881 4.69867L40.5212 4.20011C40.8727 3.58909 41.2574 2.99992 41.6753 2.43279L42.4803 3.02602ZM41.3881 4.69867L42.255 5.19723C41.9229 5.77461 41.5916 6.35278 41.2612 6.93174L40.3927 6.43608L39.5242 5.94043C39.8557 5.35954 40.1881 4.77943 40.5212 4.20011L41.3881 4.69867ZM40.3927 6.43608L41.2612 6.93174C40.9489 7.47912 40.6682 8.04224 40.4191 8.62128L39.5005 8.22615L38.5819 7.83102C38.8605 7.18316 39.1747 6.5529 39.5242 5.94043L40.3927 6.43608ZM39.5005 8.22615L40.4191 8.62128C40.2727 8.96174 39.9449 9.57716 39.2483 9.71715C38.5021 9.86709 37.9745 9.36008 37.7328 9.07523L38.4952 8.42816L39.2576 7.7811C39.3152 7.84896 39.3223 7.83846 39.2718 7.81046C39.2085 7.77533 39.0553 7.71595 38.8543 7.75634C38.6627 7.79483 38.5611 7.89752 38.5385 7.9233C38.5192 7.94514 38.5398 7.92892 38.5819 7.83102L39.5005 8.22615ZM38.4952 8.42816L37.7328 9.07523C37.3421 8.61495 36.9208 8.15258 36.4685 7.68819L37.1849 6.99046L37.9012 6.29272C38.3834 6.7877 38.8356 7.28381 39.2576 7.7811L38.4952 8.42816ZM37.1849 6.99046L36.4685 7.68819C35.9579 7.16396 35.4984 6.59493 35.0903 5.98192L35.9226 5.4277L36.755 4.87349C37.0954 5.38477 37.4774 5.85758 37.9012 6.29272L37.1849 6.99046ZM35.9226 5.4277L35.0903 5.98192C34.7669 5.49625 34.3844 5.06446 33.9409 4.68462L34.5915 3.92516L35.242 3.16569C35.8249 3.66496 36.3298 4.23486 36.755 4.87349L35.9226 5.4277ZM34.5915 3.92516L33.9409 4.68462C33.5012 4.30798 33.0173 4.00203 32.4865 3.76533L32.8937 2.85201L33.301 1.93869C34.0075 2.25375 34.6554 2.66322 35.242 3.16569L34.5915 3.92516ZM32.8937 2.85201L32.4865 3.76533C31.9795 3.53928 31.4575 3.41462 30.9146 3.38815L30.9633 2.38934L31.0119 1.39053C31.8056 1.42921 32.5705 1.61299 33.301 1.93869L32.8937 2.85201ZM30.9633 2.38934L30.9146 3.38815C30.4255 3.36432 29.9803 3.46493 29.5589 3.6911L29.086 2.80997L28.6131 1.92883C29.3581 1.52903 30.1644 1.34922 31.0119 1.39053L30.9633 2.38934ZM29.086 2.80997L29.5589 3.6911C28.999 3.99155 28.4536 4.31291 27.9225 4.6552L27.3807 3.81466L26.839 2.97411C27.4151 2.60279 28.0065 2.25436 28.6131 1.92883L29.086 2.80997ZM27.3807 3.81466L27.9225 4.6552C27.397 4.99387 26.8864 5.36031 26.3904 5.75473L25.768 4.97205L25.1455 4.18938C25.6927 3.75422 26.2572 3.34908 26.839 2.97411L27.3807 3.81466ZM25.768 4.97205L26.3904 5.75473C25.8633 6.17388 25.3313 6.58793 24.7943 6.99687L24.1884 6.2013L23.5826 5.40574C24.1085 5.00525 24.6295 4.5998 25.1455 4.18938L25.768 4.97205ZM24.1884 6.2013L24.7943 6.99687C24.236 7.42204 23.6563 7.81893 23.0553 8.18752L22.5325 7.33507L22.0097 6.48263C22.5538 6.14896 23.078 5.79 23.5826 5.40574L24.1884 6.2013ZM22.5325 7.33507L23.0553 8.18752C22.4159 8.57968 21.7391 8.89217 21.0262 9.12424L20.7166 8.17337L20.4071 7.22249C20.9704 7.03909 21.5041 6.79271 22.0097 6.48263L22.5325 7.33507ZM20.7166 8.17337L21.0262 9.12424C20.4005 9.32793 19.7807 9.5433 19.1666 9.77033L18.8199 8.83238L18.4731 7.89444C19.1119 7.65826 19.7565 7.43427 20.4071 7.22249L20.7166 8.17337ZM18.8199 8.83238L19.1666 9.77033C18.55 9.99833 17.9367 10.236 17.3268 10.4833L16.951 9.55664L16.5752 8.62995C17.2043 8.37482 17.8369 8.12965 18.4731 7.89444L18.8199 8.83238ZM16.951 9.55664L17.3268 10.4833C16.7657 10.7109 16.2302 10.9893 15.7197 11.319L15.1772 10.4789L14.6347 9.6389C15.2503 9.24131 15.8974 8.90483 16.5752 8.62995L16.951 9.55664ZM15.1772 10.4789L15.7197 11.319C15.1448 11.6903 14.5644 12.0479 13.9784 12.392L13.4721 11.5296L12.9658 10.6673C13.5271 10.3377 14.0834 9.99491 14.6347 9.6389L15.1772 10.4789ZM13.4721 11.5296L13.9784 12.392C13.385 12.7404 12.7771 13.07 12.1547 13.3807L11.708 12.486L11.2613 11.5914C11.8437 11.3006 12.4118 10.9925 12.9658 10.6673L13.4721 11.5296ZM11.708 12.486L12.1547 13.3807C11.6351 13.6401 11.1634 13.9643 10.7372 14.3545L10.0619 13.617L9.3866 12.8794C9.95034 12.3633 10.576 11.9335 11.2613 11.5914L11.708 12.486ZM10.0619 13.617L10.7372 14.3545C10.2653 14.7866 9.81595 15.2386 9.3891 15.7107L8.64734 15.04L7.90559 14.3694C8.37482 13.8504 8.86853 13.3537 9.3866 12.8794L10.0619 13.617ZM8.64734 15.04L9.3891 15.7107C8.93376 16.2143 8.47246 16.708 8.00519 17.1917L7.28595 16.4969L6.5667 15.8022C7.01855 15.3344 7.46484 14.8568 7.90559 14.3694L8.64734 15.04ZM7.28595 16.4969L8.00519 17.1917C7.52394 17.6899 7.01592 18.1692 6.48135 18.6296L5.82877 17.8719L5.17619 17.1142C5.6654 16.6928 6.12884 16.2555 6.5667 15.8022L7.28595 16.4969ZM5.82877 17.8719L6.48135 18.6296C6.07128 18.9828 5.74986 19.3982 5.51184 19.882L4.61453 19.4406L3.71723 18.9992C4.07439 18.2732 4.56246 17.6427 5.17619 17.1142L5.82877 17.8719ZM4.61453 19.4406L5.51184 19.882C5.20093 20.514 4.86436 21.1261 4.50205 21.718L3.64914 21.196L2.79623 20.6739C3.12593 20.1353 3.43295 19.5771 3.71723 18.9992L4.61453 19.4406ZM3.64914 21.196L4.50205 21.718C4.15757 22.2808 3.81413 22.8475 3.47171 23.418L2.61428 22.9034L1.75685 22.3888C2.10223 21.8133 2.44869 21.2417 2.79623 20.6739L3.64914 21.196ZM2.61428 22.9034L3.47171 23.418C3.14629 23.9602 2.84997 24.52 2.58272 25.0976L1.67517 24.6776L0.76762 24.2577C1.06471 23.6156 1.39446 22.9926 1.75685 22.3888L2.61428 22.9034ZM1.67517 24.6776L2.58272 25.0976C2.33938 25.6235 2.17199 26.1735 2.08018 26.7502L1.09261 26.593L0.105049 26.4358C0.225631 25.6783 0.446612 24.9514 0.76762 24.2577L1.67517 24.6776ZM1.09261 26.593L2.08018 26.7502C1.98875 27.3245 1.97909 27.8977 2.05092 28.4724L1.05863 28.5964L0.0663517 28.7205C-0.0289078 27.9582 -0.0159223 27.1957 0.105049 26.4358L1.09261 26.593ZM1.05863 28.5964L2.05092 28.4724C2.13706 29.1618 2.20055 29.8458 2.2413 30.5245L1.2431 30.5844L0.244897 30.6444C0.206781 30.0095 0.1473 29.3682 0.0663517 28.7205L1.05863 28.5964ZM1.2431 30.5844L2.2413 30.5245C2.2774 31.1257 2.36346 31.7248 2.49993 32.3223L1.52504 32.5449L0.550154 32.7676C0.389566 32.0646 0.287664 31.3567 0.244897 30.6444L1.2431 30.5844ZM1.52504 32.5449L2.49993 32.3223C2.62066 32.8508 2.83276 33.3378 3.13927 33.7892L2.31202 34.351L1.48477 34.9128C1.03904 34.2565 0.726485 33.5396 0.550154 32.7676L1.52504 32.5449ZM2.31202 34.351L3.13927 33.7892C3.47865 34.2889 3.86195 34.7486 4.28963 35.1693L3.58838 35.8822L2.88712 36.5951C2.36523 36.0818 1.89763 35.5207 1.48477 34.9128L2.31202 34.351ZM3.58838 35.8822L4.28963 35.1693C4.74998 35.6221 5.22289 36.0598 5.70837 36.4824L5.05183 37.2367L4.39529 37.991C3.87907 37.5416 3.37634 37.0763 2.88712 36.5951L3.58838 35.8822ZM5.05183 37.2367L5.70837 36.4824C6.2378 36.9432 6.74183 37.4347 7.22042 37.9566L6.48338 38.6325L5.74634 39.3083C5.3179 38.8411 4.86756 38.402 4.39529 37.991L5.05183 37.2367ZM6.48338 38.6325L7.22042 37.9566C7.63147 38.4049 8.07999 38.8098 8.56656 39.172L7.96941 39.9742L7.37227 40.7763C6.78449 40.3387 6.24232 39.8492 5.74634 39.3083L6.48338 38.6325ZM7.96941 39.9742L8.56656 39.172C9.13829 39.5976 9.67995 40.0581 10.1913 40.5534L9.49562 41.2717L8.79994 41.9901C8.35069 41.555 7.87488 41.1505 7.37227 40.7763L7.96941 39.9742ZM9.49562 41.2717L10.1913 40.5534C10.7155 41.061 11.1897 41.6128 11.6135 42.2081L10.7988 42.788L9.98416 43.368C9.63095 42.8718 9.23636 42.4127 8.79994 41.9901L9.49562 41.2717ZM10.7988 42.788L11.6135 42.2081C12.0178 42.776 12.3972 43.3581 12.7515 43.9541L11.8919 44.4651L11.0323 44.9761C10.7062 44.4275 10.3568 43.8915 9.98416 43.368L10.7988 42.788ZM11.8919 44.4651L12.7515 43.9541C13.1558 44.6343 13.4237 45.37 13.5542 46.1546L12.5677 46.3186L11.5812 46.4827C11.4911 45.9406 11.3084 45.4406 11.0323 44.9761L11.8919 44.4651ZM12.5677 46.3186L13.5542 46.1546C13.6751 46.8822 13.7244 47.6152 13.7017 48.3525L12.7022 48.3218L11.7027 48.2912C11.7213 47.6842 11.6808 47.0817 11.5812 46.4827L12.5677 46.3186ZM12.7022 48.3218L13.7017 48.3525C13.6827 48.9733 13.7115 49.5898 13.788 50.2026L12.7957 50.3265L11.8034 50.4504C11.714 49.7346 11.6805 49.0147 11.7027 48.2912L12.7022 48.3218ZM12.7957 50.3265L13.788 50.2026C13.8717 50.8728 13.9491 51.5419 14.0204 52.2099L13.026 52.3159L12.0316 52.4219C11.9617 51.7659 11.8856 51.1088 11.8034 50.4504L12.7957 50.3265ZM13.026 52.3159L14.0204 52.2099C14.0967 52.9256 14.1154 53.6485 14.0769 54.3782L13.0783 54.3256L12.0797 54.2731C12.1127 53.6471 12.0965 53.0302 12.0316 52.4219L13.026 52.3159ZM13.0783 54.3256L14.0769 54.3782C14.0541 54.8111 14.1708 55.161 14.4331 55.4796L13.6611 56.1152L12.8891 56.7509C12.303 56.039 12.0311 55.1959 12.0797 54.2731L13.0783 54.3256ZM13.6611 56.1152L14.4331 55.4796C14.8027 55.9284 15.2116 56.3086 15.6597 56.6241L15.0841 57.4418L14.5085 58.2595C13.9078 57.8367 13.368 57.3325 12.8891 56.7509L13.6611 56.1152ZM15.0841 57.4418L15.6597 56.6241C16.0592 56.9053 16.5009 57.086 16.9963 57.1678L16.8333 58.1545L16.6704 59.1411C15.8823 59.011 15.1578 58.7166 14.5085 58.2595L15.0841 57.4418ZM16.8333 58.1545L16.9963 57.1678C17.5115 57.2529 18.0338 57.2407 18.5698 57.1269L18.7775 58.1051L18.9851 59.0833C18.2124 59.2473 17.4386 59.268 16.6704 59.1411L16.8333 58.1545ZM18.7775 58.1051L18.5698 57.1269C19.1294 57.0081 19.6591 56.8122 20.1619 56.538L20.6407 57.4159L21.1194 58.2938C20.4467 58.6607 19.7343 58.9242 18.9851 59.0833L18.7775 58.1051ZM20.6407 57.4159L20.1619 56.538C20.7211 56.233 21.2637 55.9018 21.7897 55.5445L22.3516 56.3717L22.9135 57.1989C22.3337 57.5928 21.7357 57.9578 21.1194 58.2938L20.6407 57.4159ZM22.3516 56.3717L21.7897 55.5445C22.364 55.1544 22.9545 54.7859 23.561 54.4391L24.0574 55.3072L24.5538 56.1753C23.9917 56.4967 23.4449 56.8379 22.9135 57.1989L22.3516 56.3717ZM24.0574 55.3072L23.561 54.4391C24.2981 54.0176 25.1049 53.8043 25.9632 53.7963L25.9726 54.7962L25.982 55.7962C25.4553 55.8011 24.9853 55.9285 24.5538 56.1753L24.0574 55.3072ZM25.9726 54.7962L25.9632 53.7963C26.4678 53.7915 26.9994 53.9112 27.4341 54.2776C27.8707 54.6456 28.0771 55.1506 28.1522 55.6515L27.1632 55.7997L26.1742 55.9478C26.1611 55.8602 26.143 55.8156 26.135 55.7993C26.1285 55.7862 26.1303 55.7943 26.1452 55.8069C26.1831 55.8388 26.17 55.7944 25.982 55.7962L25.9726 54.7962ZM27.1632 55.7997L28.1522 55.6515C28.2534 56.3274 28.3531 56.9959 28.4511 57.6569L27.4619 57.8036L26.4727 57.9503C26.3749 57.2903 26.2754 56.6228 26.1742 55.9478L27.1632 55.7997ZM27.4619 57.8036L28.4511 57.6569C28.5511 58.3314 28.6368 59.0072 28.708 59.6843L27.7135 59.789L26.719 59.8937C26.6507 59.2447 26.5686 58.5969 26.4727 57.9503L27.4619 57.8036ZM27.7135 59.789L28.708 59.6843C28.7743 60.3144 28.8718 60.9402 29.0005 61.562L28.0213 61.7646L27.042 61.9673C26.9 61.2809 26.7923 60.5896 26.719 59.8937L27.7135 59.789ZM28.0213 61.7646L29.0005 61.562C29.1459 62.2643 29.2389 62.9745 29.2797 63.6922L28.2813 63.7489L27.2829 63.8056C27.2477 63.1858 27.1674 62.5731 27.042 61.9673L28.0213 61.7646ZM28.2813 63.7489L29.2797 63.6922C29.3153 64.3194 29.3898 64.9403 29.5029 65.555L28.5194 65.736L27.5359 65.917C27.4076 65.2198 27.3233 64.5159 27.2829 63.8056L28.2813 63.7489ZM28.5194 65.736L29.5029 65.555C29.6204 66.1935 29.7548 66.8277 29.9061 67.4579L28.9337 67.6913L27.9613 67.9247C27.8017 67.2598 27.6599 66.5906 27.5359 65.917L28.5194 65.736ZM28.9337 67.6913L29.9061 67.4579C30.0613 68.1046 30.2173 68.7512 30.374 69.3975L29.4022 69.6331L28.4303 69.8688C28.2733 69.221 28.1169 68.573 27.9613 67.9247L28.9337 67.6913ZM29.4022 69.6331L30.374 69.3975C30.521 70.0035 30.7067 70.6027 30.9315 71.1951L29.9966 71.5499L29.0617 71.9047C28.8077 71.2355 28.5972 70.5568 28.4303 69.8688L29.4022 69.6331ZM29.9966 71.5499L30.9315 71.1951C31.1076 71.6589 31.382 72.0342 31.7642 72.3378L31.1422 73.1208L30.5202 73.9038C29.8538 73.3745 29.3645 72.7025 29.0617 71.9047L29.9966 71.5499ZM31.1422 73.1208L31.7642 72.3378C32.2535 72.7264 32.7594 73.0749 33.2819 73.3838L32.773 74.2447L32.2641 75.1055C31.6608 74.7488 31.0795 74.3481 30.5202 73.9038L31.1422 73.1208ZM32.773 74.2447L33.2819 73.3838C33.7478 73.6593 34.2557 73.8558 34.8111 73.9721L34.6062 74.9509L34.4013 75.9296C33.6382 75.7699 32.924 75.4956 32.2641 75.1055L32.773 74.2447ZM34.6062 74.9509L34.8111 73.9721C35.345 74.0838 35.8787 74.0921 36.4194 73.9962L36.5939 74.9809L36.7684 75.9655C35.9774 76.1057 35.186 76.0939 34.4013 75.9296L34.6062 74.9509ZM36.5939 74.9809L36.4194 73.9962C36.9944 73.8943 37.539 73.7171 38.0561 73.4644L38.4952 74.3628L38.9343 75.2612C38.2481 75.5966 37.5252 75.8314 36.7684 75.9655L36.5939 74.9809ZM38.4952 74.3628L38.0561 73.4644C38.6626 73.1679 39.272 72.8762 39.8842 72.5892L40.3087 73.4946L40.7332 74.4001C40.1307 74.6825 39.5311 74.9696 38.9343 75.2612L38.4952 74.3628ZM40.3087 73.4946L39.8842 72.5892C40.3847 72.3546 40.8273 72.0419 41.2166 71.648L41.9279 72.3508L42.6392 73.0537C42.0843 73.6153 41.4475 74.0652 40.7332 74.4001L40.3087 73.4946ZM41.9279 72.3508L41.2166 71.648C41.7007 71.158 42.1968 70.6812 42.7047 70.2178L43.3787 70.9564L44.0528 71.6951C43.5704 72.1353 43.0992 72.5882 42.6392 73.0537L41.9279 72.3508ZM43.3787 70.9564L42.7047 70.2178C43.1267 69.8327 43.4838 69.3941 43.7779 68.8992L44.6376 69.41L45.4973 69.9208C45.1031 70.5842 44.621 71.1766 44.0528 71.6951L43.3787 70.9564ZM44.6376 69.41L43.7779 68.8992C44.0669 68.4128 44.2698 67.8962 44.3885 67.3456L45.366 67.5564L46.3436 67.7671C46.1792 68.5298 45.8965 69.249 45.4973 69.9208L44.6376 69.41ZM45.366 67.5564L44.3885 67.3456C44.5296 66.6911 44.6674 66.0413 44.8021 65.396L45.781 65.6003L46.7599 65.8045C46.6244 66.4541 46.4856 67.1083 46.3436 67.7671L45.366 67.5564ZM45.781 65.6003L44.8021 65.396C44.9427 64.7221 45.1115 64.0497 45.3085 63.3791L46.268 63.6608L47.2274 63.9426C47.0453 64.563 46.8895 65.1836 46.7599 65.8045L45.781 65.6003ZM46.268 63.6608L45.3085 63.3791C45.4705 62.8272 45.5496 62.2645 45.5461 61.6879L46.546 61.6817L47.546 61.6755C47.5508 62.4467 47.4445 63.2034 47.2274 63.9426L46.268 63.6608ZM46.546 61.6817L45.5461 61.6879C45.5414 60.94 45.6193 60.202 45.7798 59.4752L46.7562 59.6908L47.7327 59.9065C47.6046 60.4866 47.5423 61.0758 47.546 61.6755L46.546 61.6817ZM46.7562 59.6908L45.7798 59.4752C45.9387 58.7555 46.1673 58.066 46.4664 57.4082L47.3767 57.8221L48.2871 58.236C48.0474 58.763 47.8624 59.3194 47.7327 59.9065L46.7562 59.6908ZM47.3767 57.8221L46.4664 57.4082C46.6568 56.9894 46.9324 56.6101 47.3222 56.3345C47.7181 56.0546 48.1708 55.9251 48.6387 55.9152L48.6598 56.9149L48.681 57.9147C48.5628 57.9172 48.5087 57.945 48.4768 57.9676C48.4389 57.9944 48.366 58.0624 48.2871 58.236L47.3767 57.8221ZM48.6598 56.9149L48.6387 55.9152C49.3703 55.8997 50.1006 56.0411 50.8229 56.3194L50.4634 57.2526L50.1038 58.1857C49.5936 57.9891 49.1215 57.9054 48.681 57.9147L48.6598 56.9149ZM50.4634 57.2526L50.8229 56.3194C51.438 56.5564 52.0567 56.7934 52.6792 57.0304L52.3233 57.965L51.9675 58.8995C51.3426 58.6616 50.7214 58.4236 50.1038 58.1857L50.4634 57.2526ZM52.3233 57.965L52.6792 57.0304C53.3324 57.2792 53.9732 57.5586 54.6015 57.8686L54.159 58.7654L53.7166 59.6621C53.1446 59.3799 52.5616 59.1258 51.9675 58.8995L52.3233 57.965ZM54.159 58.7654L54.6015 57.8686C55.1839 58.1559 55.775 58.4261 56.3747 58.6791L55.986 59.6005L55.5972 60.5218C54.9613 60.2535 54.3344 59.967 53.7166 59.6621L54.159 58.7654ZM55.986 59.6005L56.3747 58.6791C56.9276 58.9124 57.4992 59.0854 58.0906 59.1983L57.9031 60.1806L57.7155 61.1628C56.9864 61.0236 56.2799 60.8099 55.5972 60.5218L55.986 59.6005ZM57.9031 60.1806L58.0906 59.1983C58.7747 59.329 59.4532 59.4843 60.1263 59.6643L59.868 60.6303L59.6096 61.5964C58.9833 61.4289 58.3519 61.2844 57.7155 61.1628L57.9031 60.1806ZM59.868 60.6303L60.1263 59.6643C60.6506 59.8045 61.1813 59.8408 61.7256 59.7727L61.8497 60.765L61.9738 61.7573C61.1752 61.8571 60.3847 61.8036 59.6096 61.5964L59.868 60.6303ZM61.8497 60.765L61.7256 59.7727C62.4573 59.6812 63.1901 59.6568 63.9235 59.6995L63.8653 60.6978L63.8071 61.6962C63.1959 61.6605 62.5851 61.6808 61.9738 61.7573L61.8497 60.765ZM63.8653 60.6978L63.9235 59.6995C64.4278 59.729 64.8998 59.6367 65.3549 59.4201L65.7847 60.3231L66.2144 61.226C65.4548 61.5875 64.6472 61.7451 63.8071 61.6962L63.8653 60.6978ZM65.7847 60.3231L65.3549 59.4201C66.001 59.1126 66.6661 58.847 67.3498 58.6231L67.6609 59.5735L67.9721 60.5238C67.3688 60.7213 66.783 60.9554 66.2144 61.226L65.7847 60.3231ZM67.6609 59.5735L67.3498 58.6231C67.8264 58.4671 68.2274 58.2062 68.5668 57.8296L69.3096 58.4991L70.0525 59.1686C69.4805 59.8032 68.7824 60.2585 67.9721 60.5238L67.6609 59.5735ZM69.3096 58.4991L68.5668 57.8296C68.9183 57.4397 69.1558 57.0027 69.2883 56.5086L70.2542 56.7677L71.2201 57.0268C71.0046 57.8301 70.6124 58.5474 70.0525 59.1686L69.3096 58.4991ZM70.2542 56.7677L69.2883 56.5086C69.4245 56.0009 69.4455 55.4985 69.3536 54.9905L70.3377 54.8125L71.3217 54.6346C71.4666 55.436 71.4319 56.2369 71.2201 57.0268L70.2542 56.7677ZM70.3377 54.8125L69.3536 54.9905C69.2491 54.4121 69.08 53.8568 68.8462 53.3229L69.7623 52.9218L70.6783 52.5208C70.975 53.1985 71.1896 53.9036 71.3217 54.6346L70.3377 54.8125ZM69.7623 52.9218L68.8462 53.3229C68.6001 52.7606 68.3138 52.2155 67.9872 51.6873L68.8377 51.1613L69.6882 50.6354C70.0639 51.2429 70.394 51.8714 70.6783 52.5208L69.7623 52.9218ZM68.8377 51.1613L67.9872 51.6873C67.579 51.0273 67.2856 50.3171 67.1083 49.5607L68.0819 49.3325L69.0555 49.1042C69.1835 49.6506 69.394 50.1596 69.6882 50.6354L68.8377 51.1613ZM68.0819 49.3325L67.1083 49.5607C66.9275 48.7896 66.8944 48.0208 67.0191 47.2623L68.0059 47.4246L68.9926 47.5868C68.9133 48.0695 68.9309 48.5726 69.0555 49.1042L68.0819 49.3325ZM68.0059 47.4246L67.0191 47.2623C67.1623 46.3914 67.5991 45.6586 68.2818 45.09L68.9218 45.8584L69.5617 46.6268C69.2273 46.9053 69.0535 47.2166 68.9926 47.5868L68.0059 47.4246ZM68.9218 45.8584L68.2818 45.09C68.7433 44.7056 69.1728 44.2767 69.5701 43.802L70.3369 44.444L71.1037 45.0859C70.6313 45.6501 70.1173 46.1641 69.5617 46.6268L68.9218 45.8584ZM70.3369 44.444L69.5701 43.802C70.0625 43.2139 70.6232 42.7028 71.2508 42.2709L71.8177 43.0947L72.3846 43.9184C71.9076 44.2467 71.481 44.6351 71.1037 45.0859L70.3369 44.444ZM71.8177 43.0947L71.2508 42.2709C71.7594 41.9209 72.2353 41.5339 72.6791 41.1099L73.37 41.8328L74.0609 42.5557C73.5397 43.0539 72.9808 43.5082 72.3846 43.9184L71.8177 43.0947ZM73.37 41.8328L72.6791 41.1099C73.1678 40.6428 73.6637 40.1809 74.1668 39.7243L74.8389 40.4648L75.5109 41.2052C75.0205 41.6504 74.5372 42.1005 74.0609 42.5557L73.37 41.8328ZM74.8389 40.4648L74.1668 39.7243C74.6023 39.329 74.983 38.8862 75.31 38.3943L76.1428 38.9479L76.9755 39.5015C76.5575 40.1303 76.069 40.6988 75.5109 41.2052L74.8389 40.4648ZM76.1428 38.9479L75.31 38.3943C75.6395 37.8986 75.904 37.377 76.105 36.8284L77.044 37.1724L77.9829 37.5163C77.7272 38.2145 77.391 38.8766 76.9755 39.5015L76.1428 38.9479ZM77.044 37.1724L76.105 36.8284C76.3211 36.2385 76.503 35.6445 76.6511 35.0464L77.6218 35.2867L78.5925 35.5271C78.4267 36.1965 78.2235 36.8596 77.9829 37.5163L77.044 37.1724ZM77.6218 35.2867L76.6511 35.0464C76.7968 34.458 76.9031 33.8525 76.9697 33.2294L77.964 33.3356L78.9584 33.4417C78.8824 34.1527 78.7606 34.848 78.5925 35.5271L77.6218 35.2867ZM77.964 33.3356L76.9697 33.2294C77.0222 32.7371 76.9495 32.2731 76.7483 31.8194L77.6624 31.414L78.5766 31.0086C78.9199 31.7829 79.0482 32.5998 78.9584 33.4417L77.964 33.3356ZM77.6624 31.414L76.7483 31.8194C76.5282 31.3231 76.2258 30.8909 75.8375 30.5167L76.5315 29.7967L77.2254 29.0767C77.8005 29.631 78.2521 30.277 78.5766 31.0086L77.6624 31.414ZM76.5315 29.7967L75.8375 30.5167C75.4252 30.1193 74.9632 29.7868 74.4487 29.5182L74.9116 28.6318L75.3744 27.7453C76.0565 28.1014 76.6744 28.5456 77.2254 29.0767L76.5315 29.7967ZM74.9116 28.6318L74.4487 29.5182C74.0293 29.2993 73.5978 29.2203 73.1276 29.2767L73.0085 28.2838L72.8894 27.291C73.76 27.1865 74.5972 27.3396 75.3744 27.7453L74.9116 28.6318ZM73.0085 28.2838L73.1276 29.2767C72.538 29.3474 71.9715 29.4875 71.4261 29.6967L71.068 28.763L70.7099 27.8293C71.411 27.5604 72.1381 27.3811 72.8894 27.291L73.0085 28.2838ZM71.068 28.763L71.4261 29.6967C70.7442 29.9582 70.0408 30.1546 69.317 30.2859L69.1385 29.3019L68.9601 28.3179C69.5625 28.2087 70.1455 28.0458 70.7099 27.8293L71.068 28.763ZM69.1385 29.3019L69.317 30.2859C68.7487 30.3889 68.2099 30.57 67.6975 30.8297L67.2453 29.9378L66.7931 29.0459C67.4788 28.6983 68.2021 28.4554 68.9601 28.3179L69.1385 29.3019ZM67.2453 29.9378L67.6975 30.8297C67.0423 31.1619 66.3623 31.4294 65.6583 31.6316L65.3822 30.6704L65.1062 29.7093C65.6882 29.5421 66.2503 29.3211 66.7931 29.0459L67.2453 29.9378ZM65.3822 30.6704L65.6583 31.6316C65.025 31.8135 64.3972 32.0043 63.7747 32.2039L63.4692 31.2517L63.1638 30.2995C63.8059 30.0935 64.4534 29.8968 65.1062 29.7093L65.3822 30.6704ZM63.4692 31.2517L63.7747 32.2039C63.1654 32.3994 62.5572 32.6189 61.9498 32.8626L61.5774 31.9345L61.205 31.0065C61.8555 30.7454 62.5084 30.5097 63.1638 30.2995L63.4692 31.2517ZM61.5774 31.9345L61.9498 32.8626C61.5417 33.0264 61.0469 33.1402 60.5456 33.0139C59.9878 32.8735 59.6134 32.4869 59.4052 32.0339L60.3138 31.6162L61.2224 31.1986C61.2299 31.2149 61.2215 31.1898 61.1814 31.1538C61.1376 31.1144 61.0836 31.087 61.0341 31.0745C60.9903 31.0635 60.9757 31.0705 61.0067 31.0661C61.039 31.0617 61.1034 31.0472 61.205 31.0065L61.5774 31.9345ZM60.3138 31.6162L59.4052 32.0339C59.0357 31.2301 59.1405 30.3787 59.4969 29.5915L60.4079 30.004L61.3189 30.4164C61.1226 30.8498 61.1648 31.0733 61.2224 31.1986L60.3138 31.6162ZM60.4079 30.004L59.4969 29.5915C59.8063 28.9083 60.1931 28.2705 60.6563 27.6797L61.4432 28.2967L62.2302 28.9137C61.8656 29.3787 61.5621 29.8792 61.3189 30.4164L60.4079 30.004ZM61.4432 28.2967L60.6563 27.6797C61.0302 27.2028 61.354 26.695 61.6282 26.1555L62.5197 26.6086L63.4111 27.0617C63.078 27.7171 62.6842 28.3347 62.2302 28.9137L61.4432 28.2967ZM62.5197 26.6086L61.6282 26.1555C61.9654 25.4922 62.3718 24.8732 62.8466 24.2996L63.6169 24.9372L64.3872 25.5749C64.0064 26.0349 63.6813 26.5302 63.4111 27.0617L62.5197 26.6086ZM63.6169 24.9372L62.8466 24.2996C63.2411 23.8229 63.5955 23.3193 63.91 22.7885L64.7703 23.2982L65.6307 23.8079C65.2628 24.4288 64.8483 25.0179 64.3872 25.5749L63.6169 24.9372ZM64.7703 23.2982L63.91 22.7885C64.2643 22.1905 64.6406 21.608 65.039 21.0409L65.8572 21.6157L66.6755 22.1906C66.307 22.7152 65.9587 23.2543 65.6307 23.8079L64.7703 23.2982ZM65.8572 21.6157L65.039 21.0409C65.4082 20.5152 65.7574 19.9769 66.0866 19.4258L66.9451 19.9386L67.8036 20.4514C67.4492 21.0448 67.0731 21.6246 66.6755 22.1906L65.8572 21.6157ZM66.9451 19.9386L66.0866 19.4258C66.4379 18.8377 66.8054 18.2596 67.189 17.6916L68.0177 18.2513L68.8464 18.811C68.4835 19.3483 68.1359 19.8951 67.8036 20.4514L66.9451 19.9386ZM68.0177 18.2513L67.189 17.6916C67.564 17.1363 67.9423 16.5821 68.3238 16.0289L69.147 16.5966L69.9702 17.1644C69.5924 17.7122 69.2178 18.2611 68.8464 18.811L68.0177 18.2513ZM69.147 16.5966L68.3238 16.0289C68.6625 15.5377 68.9447 15.016 69.171 14.4627L70.0966 14.8411L71.0222 15.2196C70.7416 15.9059 70.3907 16.5546 69.9702 17.1644L69.147 16.5966ZM70.0966 14.8411L69.171 14.4627C69.4034 13.8941 69.5851 13.3156 69.7165 12.7267L70.6925 12.9446L71.6685 13.1624C71.5122 13.8626 71.2966 14.5484 71.0222 15.2196L70.0966 14.8411ZM70.6925 12.9446L69.7165 12.7267C69.8529 12.1157 69.9568 11.5024 70.0284 10.8867L71.0217 11.0021L72.015 11.1176C71.9354 11.8027 71.8199 12.4844 71.6685 13.1624L70.6925 12.9446ZM71.0217 11.0021L70.0284 10.8867C70.1035 10.2403 70.1759 9.58331 70.2455 8.91576L71.2401 9.0195L72.2347 9.12324C72.1643 9.79836 72.0911 10.4631 72.015 11.1176L71.0217 11.0021ZM71.2401 9.0195L70.2455 8.91576C70.2919 8.47099 70.1976 8.09411 69.9628 7.74216L70.7947 7.18727L71.6267 6.63238C72.1258 7.38074 72.3284 8.22534 72.2347 9.12324L71.2401 9.0195ZM70.7947 7.18727L69.9628 7.74216C69.6403 7.25863 69.2691 6.82635 68.8486 6.44332L69.5221 5.70408L70.1955 4.96484C70.7381 5.45909 71.2153 6.01559 71.6267 6.63238L70.7947 7.18727ZM69.5221 5.70408L68.8486 6.44332C68.4951 6.12129 68.0925 5.91131 67.6255 5.80558L67.8464 4.83026L68.0672 3.85494C68.8715 4.03704 69.586 4.4096 70.1955 4.96484L69.5221 5.70408ZM67.8464 4.83026L67.6255 5.80558C67.1424 5.6962 66.6609 5.70013 66.1687 5.82L65.9321 4.8484L65.6954 3.8768C66.4843 3.68466 67.279 3.6765 68.0672 3.85494L67.8464 4.83026ZM65.9321 4.8484L66.1687 5.82C65.6205 5.95352 65.1032 6.16081 64.6141 6.44296L64.1144 5.57676L63.6147 4.71056C64.2682 4.33357 64.9626 4.05528 65.6954 3.8768L65.9321 4.8484ZM64.1144 5.57676L64.6141 6.44296C64.1159 6.73032 63.6584 7.07726 63.2404 7.48552L62.5417 6.77008L61.843 6.05464C62.3793 5.53095 62.9702 5.08234 63.6147 4.71056L64.1144 5.57676ZM62.5417 6.77008L63.2404 7.48552C62.7518 7.9626 62.2521 8.42783 61.7413 8.8812L61.0775 8.13329L60.4137 7.38537C60.9008 6.95309 61.3772 6.50951 61.843 6.05464L62.5417 6.77008ZM61.0775 8.13329L61.7413 8.8812C61.2781 9.29234 60.8461 9.73479 60.4451 10.2088L59.6816 9.56304L58.9181 8.91725C59.3805 8.3706 59.8791 7.85988 60.4137 7.38537L61.0775 8.13329ZM59.6816 9.56304L60.4451 10.2088C59.9856 10.7521 59.4929 11.2636 58.9671 11.7431L58.2933 11.0042L57.6195 10.2653C58.0815 9.84395 58.5143 9.39467 58.9181 8.91725L59.6816 9.56304ZM58.2933 11.0042L58.9671 11.7431C58.4667 12.1994 57.9597 12.6497 57.4461 13.0938L56.792 12.3375L56.1378 11.5811C56.6382 11.1483 57.1321 10.7098 57.6195 10.2653L58.2933 11.0042ZM56.792 12.3375L57.4461 13.0938C56.9816 13.4955 56.5547 13.9328 56.1649 14.4062L55.393 13.7704L54.621 13.1347C55.0825 12.5743 55.5883 12.0563 56.1378 11.5811L56.792 12.3375ZM55.393 13.7704L56.1649 14.4062C55.6941 14.9777 55.168 15.4937 54.5874 15.953L53.9669 15.1688L53.3465 14.3845C53.8159 14.0132 54.2405 13.5968 54.621 13.1347L55.393 13.7704ZM53.9669 15.1688L54.5874 15.953C53.8851 16.5086 53.0637 16.787 52.1749 16.629L52.3499 15.6444L52.5249 14.6599C52.7421 14.6985 52.9986 14.6597 53.3465 14.3845L53.9669 15.1688ZM52.3499 15.6444L52.1749 16.629C51.2025 16.4562 50.5639 15.7929 50.2401 14.9074L51.1792 14.564L52.1184 14.2205C52.2495 14.5791 52.3913 14.6361 52.5249 14.6599L52.3499 15.6444ZM51.1792 14.564L50.2401 14.9074C49.9665 14.1593 49.8483 13.3806 49.8846 12.5795L50.8835 12.6246L51.8825 12.6698C51.8581 13.2103 51.9371 13.7246 52.1184 14.2205L51.1792 14.564ZM50.8835 12.6246L49.8846 12.5795C49.9141 11.9256 49.9269 11.2731 49.923 10.622L50.923 10.616L51.923 10.61C51.9271 11.2954 51.9136 11.982 51.8825 12.6698L50.8835 12.6246ZM50.923 10.616L49.923 10.622C49.9194 10.0197 49.8568 9.42115 49.7348 8.82561L50.7145 8.62499L51.6942 8.42438C51.8422 9.14712 51.9186 9.87596 51.923 10.61L50.923 10.616ZM50.7145 8.62499L49.7348 8.82561C49.5908 8.12231 49.4955 7.41557 49.4491 6.70567L50.4469 6.64046L51.4448 6.57523C51.4852 7.19311 51.5682 7.80939 51.6942 8.42438L50.7145 8.62499ZM50.4469 6.64046L49.4491 6.70567C49.4081 6.07897 49.332 5.45115 49.2205 4.82206L50.2051 4.64754L51.1898 4.47303C51.3139 5.17339 51.399 5.87417 51.4448 6.57523L50.4469 6.64046ZM50.2051 4.64754L49.2205 4.82206C49.1307 4.3156 48.9321 3.86567 48.6193 3.45942L49.4117 2.8494L50.2041 2.23939C50.7136 2.90122 51.0439 3.65005 51.1898 4.47303L50.2051 4.64754ZM49.4117 2.8494L48.6193 3.45942C48.3066 3.05318 47.9429 2.77219 47.5237 2.59354L47.9158 1.67361L48.3078 0.75367C49.061 1.07466 49.6946 1.57754 50.2041 2.23939L49.4117 2.8494ZM47.9158 1.67361L47.5237 2.59354C47.0532 2.39301 46.5656 2.28664 46.0546 2.27298L46.0813 1.27334L46.1081 0.273689C46.8706 0.294083 47.606 0.454559 48.3078 0.75367L47.9158 1.67361ZM46.0813 1.27334L46.0546 2.27298C45.5342 2.25906 45.0051 2.33376 44.4632 2.50366L44.1641 1.54947L43.8649 0.595284C44.6058 0.362953 45.3549 0.253555 46.1081 0.273689L46.0813 1.27334ZM44.1641 1.54947L44.4632 2.50366C44.1585 2.59922 43.9639 2.67386 43.8548 2.72554C43.7985 2.75223 43.7964 2.75826 43.8217 2.73949C43.8355 2.72924 43.8728 2.70041 43.917 2.65044C43.9594 2.60242 44.0327 2.50748 44.0825 2.36389L43.1378 2.03602L42.1931 1.70815C42.305 1.38553 42.5372 1.20211 42.6303 1.13308C42.7518 1.04295 42.8833 0.972763 42.998 0.918358C43.2311 0.807861 43.5282 0.700844 43.8649 0.595284L44.1641 1.54947ZM43.1378 2.03602L44.0825 2.36389C44.0125 2.56565 43.8711 2.78352 43.7744 2.92918C43.6518 3.11377 43.4873 3.34529 43.2854 3.61925L42.4803 3.02602L41.6753 2.43279C41.869 2.16999 42.0118 1.96814 42.1083 1.82273C42.1568 1.74973 42.1883 1.69897 42.2068 1.66687C42.2328 1.62193 42.2148 1.64552 42.1931 1.70815L43.1378 2.03602Z" fill="#BD655F"/>
</svg>
