<svg width="26" height="26" viewBox="0 0 26 26" fill="none" xmlns="http://www.w3.org/2000/svg">
<path d="M0.906977 26H25.093C25.5888 26 26 25.5888 26 25.093C26 24.5972 25.5888 24.186 25.093 24.186H24.7907V16.6279C24.7907 14.5479 23.7265 13.3023 21.9488 13.3023H20.9814C19.2037 13.3023 18.1395 14.5479 18.1395 16.6279V24.186H16.628V3.32558C16.628 1.24558 15.4791 0 13.5442 0H12.4559C10.521 0 9.37216 1.24558 9.37216 3.32558V24.186H7.86039V10.5814C7.86039 8.50143 6.79621 7.25585 5.01853 7.25585H4.05109C2.27341 7.25585 1.20923 8.50143 1.20923 10.5814V24.186H0.906977C0.411163 24.186 0 24.5972 0 25.093C0 25.5888 0.411163 26 0.906977 26Z" fill="#D9D9D9"/>
</svg>
